<svg width="305" height="15" viewBox="0 0 305 15" fill="none" xmlns="http://www.w3.org/2000/svg">
<g filter="url(#filter0_d_2344_5049)">
<path d="M11.0664 0.693613L21.4258 0H282.214L288.434 1.35948L288.665 3.35709L284.745 6.68643L278.29 10.4597L264.245 12.9012H7.37737L2.99666 11.5695L1.61328 8.01817L2.99666 3.35709L11.0664 0.693613Z" fill="url(#paint0_linear_2344_5049)"/>
<path d="M6.22022 0H21.4252C15.6657 2.1502 4.14681 4.57785 4.14681 8.94761C4.14681 10.7787 6.4506 12.4157 7.60249 12.9012C4.83795 12.9012 0 12.485 0 7.49102C0 2.49701 4.07002 0.346806 6.22022 0Z" fill="url(#paint1_linear_2344_5049)"/>
<path d="M277.837 7.28294C272.999 9.15569 265.396 12.1382 261.48 12.9012H279.748C280.156 12.9012 280.556 12.7929 280.909 12.5874L302.487 0H282.214C282.905 0.346806 284.287 1.2485 284.287 3.12126C284.287 4.99401 281.599 5.82635 277.837 7.28294Z" fill="url(#paint2_linear_2344_5049)"/>
</g>
<path d="M11.0664 0.693613L21.4258 0H282.214L288.434 1.35948L288.665 3.35709L284.745 6.68643L278.29 10.4597L264.245 12.9012H7.37737L2.99666 11.5695L1.61328 8.01817L2.99666 3.35709L11.0664 0.693613Z" fill="url(#paint3_linear_2344_5049)"/>
<path d="M6.22022 0H21.4252C15.6657 2.1502 4.14681 4.57785 4.14681 8.94761C4.14681 10.7787 6.4506 12.4157 7.60249 12.9012C4.83795 12.9012 0 12.485 0 7.49102C0 2.49701 4.07002 0.346806 6.22022 0Z" fill="url(#paint4_linear_2344_5049)"/>
<path d="M277.837 7.28294C272.999 9.15569 265.396 12.1382 261.48 12.9012H279.748C280.156 12.9012 280.556 12.7929 280.909 12.5874L302.487 0H282.214C282.905 0.346806 284.287 1.2485 284.287 3.12126C284.287 4.99401 281.599 5.82635 277.837 7.28294Z" fill="url(#paint5_linear_2344_5049)"/>
<defs>
<filter id="filter0_d_2344_5049" x="0" y="0" width="304.329" height="14.7442" filterUnits="userSpaceOnUse" color-interpolation-filters="sRGB">
<feFlood flood-opacity="0" result="BackgroundImageFix"/>
<feColorMatrix in="SourceAlpha" type="matrix" values="0 0 0 0 0 0 0 0 0 0 0 0 0 0 0 0 0 0 127 0" result="hardAlpha"/>
<feOffset dx="0.921514" dy="0.921514"/>
<feGaussianBlur stdDeviation="0.460757"/>
<feComposite in2="hardAlpha" operator="out"/>
<feColorMatrix type="matrix" values="0 0 0 0 0 0 0 0 0 0 0 0 0 0 0 0 0 0 0.25 0"/>
<feBlend mode="normal" in2="BackgroundImageFix" result="effect1_dropShadow_2344_5049"/>
<feBlend mode="normal" in="SourceGraphic" in2="effect1_dropShadow_2344_5049" result="shape"/>
</filter>
<linearGradient id="paint0_linear_2344_5049" x1="145.139" y1="0" x2="145.139" y2="12.9012" gradientUnits="userSpaceOnUse">
<stop stop-color="#FDFDFD"/>
<stop offset="0.183929" stop-color="#D9DADA"/>
<stop offset="0.329061" stop-color="white"/>
<stop offset="0.580005" stop-color="white"/>
<stop offset="0.750786" stop-color="#DFE0E1"/>
<stop offset="0.900655" stop-color="#AEB1B3"/>
<stop offset="1" stop-color="#969696"/>
</linearGradient>
<linearGradient id="paint1_linear_2344_5049" x1="150.437" y1="0.208084" x2="150.437" y2="12.998" gradientUnits="userSpaceOnUse">
<stop stop-color="#888D91"/>
<stop offset="0.217589" stop-color="#969694"/>
<stop offset="0.377254" stop-color="#F3F3F4"/>
<stop offset="0.501698" stop-color="#707172"/>
<stop offset="0.674328" stop-color="#545454"/>
<stop offset="0.864352" stop-color="#C7C7C7"/>
<stop offset="1" stop-color="#888A8B"/>
</linearGradient>
<linearGradient id="paint2_linear_2344_5049" x1="150.437" y1="0.208084" x2="150.437" y2="12.998" gradientUnits="userSpaceOnUse">
<stop stop-color="#888D91"/>
<stop offset="0.217589" stop-color="#969694"/>
<stop offset="0.377254" stop-color="#F3F3F4"/>
<stop offset="0.501698" stop-color="#707172"/>
<stop offset="0.674328" stop-color="#545454"/>
<stop offset="0.864352" stop-color="#C7C7C7"/>
<stop offset="1" stop-color="#888A8B"/>
</linearGradient>
<linearGradient id="paint3_linear_2344_5049" x1="145.139" y1="0" x2="145.139" y2="12.9012" gradientUnits="userSpaceOnUse">
<stop stop-color="#FDFDFD"/>
<stop offset="0.183929" stop-color="#D9DADA"/>
<stop offset="0.329061" stop-color="white"/>
<stop offset="0.40625" stop-color="white"/>
<stop offset="0.552083" stop-color="#DFE0E1"/>
<stop offset="0.900655" stop-color="#AEB1B3"/>
<stop offset="1" stop-color="#969696"/>
</linearGradient>
<linearGradient id="paint4_linear_2344_5049" x1="150.437" y1="0.208084" x2="150.437" y2="12.998" gradientUnits="userSpaceOnUse">
<stop stop-color="#888D91"/>
<stop offset="0.217589" stop-color="#969694"/>
<stop offset="0.377254" stop-color="#F3F3F4"/>
<stop offset="0.501698" stop-color="#707172"/>
<stop offset="0.674328" stop-color="#545454"/>
<stop offset="0.864352" stop-color="#C7C7C7"/>
<stop offset="1" stop-color="#888A8B"/>
</linearGradient>
<linearGradient id="paint5_linear_2344_5049" x1="150.437" y1="0.208084" x2="150.437" y2="12.998" gradientUnits="userSpaceOnUse">
<stop stop-color="#888D91"/>
<stop offset="0.217589" stop-color="#969694"/>
<stop offset="0.377254" stop-color="#F3F3F4"/>
<stop offset="0.501698" stop-color="#707172"/>
<stop offset="0.674328" stop-color="#545454"/>
<stop offset="0.864352" stop-color="#C7C7C7"/>
<stop offset="1" stop-color="#888A8B"/>
</linearGradient>
</defs>
</svg>
