<svg width="56" height="56" viewBox="0 0 56 56" fill="none" xmlns="http://www.w3.org/2000/svg">
<g filter="url(#filter0_i_2276_627)">
<circle cx="27.5916" cy="27.5908" r="25.572" fill="black"/>
<circle cx="27.5916" cy="27.5908" r="25.572" fill="url(#paint0_radial_2276_627)"/>
</g>
<circle cx="27.5916" cy="27.5908" r="26.5814" stroke="black" stroke-width="2.01884"/>
<g clip-path="url(#clip0_2276_627)">
<mask id="path-3-inside-1_2276_627" fill="white">
<path d="M18.6807 22.0679C18.8158 21.9911 18.984 22.0883 18.9844 22.2437V25.3481C18.9844 25.4209 18.945 25.4887 18.8818 25.5249L11.8389 29.5366C11.8279 29.5428 11.8153 29.5453 11.8037 29.5493C11.8027 29.5362 11.8 29.5233 11.7988 29.5103C11.7961 29.4814 11.7908 29.4529 11.7871 29.4243C11.7813 29.38 11.7758 29.336 11.7676 29.2925C11.761 29.2576 11.7523 29.2233 11.7441 29.189C11.7345 29.1482 11.7246 29.1078 11.7129 29.0679C11.7047 29.0402 11.6957 29.013 11.6865 28.9858C11.6702 28.9373 11.6531 28.8894 11.6338 28.8423C11.6265 28.8245 11.6181 28.8071 11.6104 28.7896C11.5892 28.7415 11.5672 28.6942 11.543 28.6479C11.5314 28.6258 11.5191 28.6042 11.5068 28.5825C11.4804 28.5357 11.4533 28.4895 11.4238 28.4448C11.4156 28.4323 11.4069 28.4201 11.3984 28.4077C11.3617 28.3543 11.3231 28.3025 11.2822 28.2524C11.2783 28.2476 11.2745 28.2426 11.2705 28.2378C11.2288 28.1875 11.1844 28.1398 11.1387 28.0933C11.1308 28.0852 11.1233 28.0768 11.1152 28.0688C11.068 28.0221 11.0188 27.9776 10.9678 27.9351C10.9635 27.9315 10.9594 27.9278 10.9551 27.9243C10.9028 27.8814 10.8489 27.8406 10.793 27.8022C10.7866 27.7979 10.7799 27.7939 10.7734 27.7896C10.7178 27.7522 10.6605 27.7176 10.6016 27.6851C10.5949 27.6814 10.5887 27.6769 10.582 27.6733C10.2535 27.4961 9.87822 27.3941 9.47852 27.394C9.44326 27.394 9.40792 27.3974 9.37305 27.3989C9.38809 27.3806 9.40648 27.3638 9.42871 27.3511L18.6807 22.0679Z"/>
</mask>
<path d="M18.6807 22.0679C18.8158 21.9911 18.984 22.0883 18.9844 22.2437V25.3481C18.9844 25.4209 18.945 25.4887 18.8818 25.5249L11.8389 29.5366C11.8279 29.5428 11.8153 29.5453 11.8037 29.5493C11.8027 29.5362 11.8 29.5233 11.7988 29.5103C11.7961 29.4814 11.7908 29.4529 11.7871 29.4243C11.7813 29.38 11.7758 29.336 11.7676 29.2925C11.761 29.2576 11.7523 29.2233 11.7441 29.189C11.7345 29.1482 11.7246 29.1078 11.7129 29.0679C11.7047 29.0402 11.6957 29.013 11.6865 28.9858C11.6702 28.9373 11.6531 28.8894 11.6338 28.8423C11.6265 28.8245 11.6181 28.8071 11.6104 28.7896C11.5892 28.7415 11.5672 28.6942 11.543 28.6479C11.5314 28.6258 11.5191 28.6042 11.5068 28.5825C11.4804 28.5357 11.4533 28.4895 11.4238 28.4448C11.4156 28.4323 11.4069 28.4201 11.3984 28.4077C11.3617 28.3543 11.3231 28.3025 11.2822 28.2524C11.2783 28.2476 11.2745 28.2426 11.2705 28.2378C11.2288 28.1875 11.1844 28.1398 11.1387 28.0933C11.1308 28.0852 11.1233 28.0768 11.1152 28.0688C11.068 28.0221 11.0188 27.9776 10.9678 27.9351C10.9635 27.9315 10.9594 27.9278 10.9551 27.9243C10.9028 27.8814 10.8489 27.8406 10.793 27.8022C10.7866 27.7979 10.7799 27.7939 10.7734 27.7896C10.7178 27.7522 10.6605 27.7176 10.6016 27.6851C10.5949 27.6814 10.5887 27.6769 10.582 27.6733C10.2535 27.4961 9.87822 27.3941 9.47852 27.394C9.44326 27.394 9.40792 27.3974 9.37305 27.3989C9.38809 27.3806 9.40648 27.3638 9.42871 27.3511L18.6807 22.0679Z" fill="#FE1C1D"/>
<path d="M18.6807 22.0679L18.6533 22.0198L18.6532 22.0199L18.6807 22.0679ZM18.9844 22.2437L19.0397 22.2437L19.0397 22.2435L18.9844 22.2437ZM18.9844 25.3481L19.0397 25.3481V25.3481H18.9844ZM18.8818 25.5249L18.9092 25.5729L18.9093 25.5729L18.8818 25.5249ZM11.8389 29.5366L11.8662 29.5847L11.8662 29.5847L11.8389 29.5366ZM11.8037 29.5493L11.7486 29.5535L11.754 29.6248L11.8216 29.6016L11.8037 29.5493ZM11.7988 29.5103L11.7438 29.5154L11.7438 29.5154L11.7988 29.5103ZM11.7871 29.4243L11.7323 29.4315L11.7323 29.4315L11.7871 29.4243ZM11.7676 29.2925L11.8219 29.2822L11.8219 29.2822L11.7676 29.2925ZM11.7441 29.189L11.6903 29.2017L11.6903 29.2017L11.7441 29.189ZM11.7129 29.0679L11.7659 29.0522L11.7659 29.0522L11.7129 29.0679ZM11.6865 28.9858L11.6341 29.0034L11.6341 29.0034L11.6865 28.9858ZM11.6338 28.8423L11.6849 28.8213L11.6849 28.8213L11.6338 28.8423ZM11.6104 28.7896L11.5597 28.8118L11.5598 28.8118L11.6104 28.7896ZM11.543 28.6479L11.592 28.6223L11.5919 28.6223L11.543 28.6479ZM11.5068 28.5825L11.4587 28.6097L11.4587 28.6097L11.5068 28.5825ZM11.4238 28.4448L11.47 28.4144L11.47 28.4144L11.4238 28.4448ZM11.3984 28.4077L11.3529 28.439L11.3529 28.4391L11.3984 28.4077ZM11.2822 28.2524L11.325 28.2175L11.325 28.2174L11.2822 28.2524ZM11.2705 28.2378L11.228 28.2731L11.228 28.2731L11.2705 28.2378ZM11.1387 28.0933L11.1781 28.0545L11.1781 28.0545L11.1387 28.0933ZM11.1152 28.0688L11.0764 28.1082L11.0764 28.1082L11.1152 28.0688ZM10.9678 27.9351L11.0032 27.8926L11.0032 27.8926L10.9678 27.9351ZM10.9551 27.9243L10.92 27.967L10.92 27.9671L10.9551 27.9243ZM10.793 27.8022L10.8242 27.7566L10.8242 27.7566L10.793 27.8022ZM10.7734 27.7896L10.7426 27.8355L10.7426 27.8355L10.7734 27.7896ZM10.6016 27.6851L10.5748 27.7335L10.5748 27.7335L10.6016 27.6851ZM10.582 27.6733L10.6083 27.6247L10.6083 27.6247L10.582 27.6733ZM9.47852 27.394L9.47852 27.3388L9.47851 27.3388L9.47852 27.394ZM9.37305 27.3989L9.33033 27.3638L9.25149 27.4597L9.37553 27.4542L9.37305 27.3989ZM9.42871 27.3511L9.40129 27.3031L9.40118 27.3031L9.42871 27.3511ZM18.6807 22.0679L18.708 22.1159C18.8064 22.06 18.9288 22.131 18.9291 22.2438L18.9844 22.2437L19.0397 22.2435C19.0392 22.0456 18.8251 21.9222 18.6533 22.0198L18.6807 22.0679ZM18.9844 22.2437H18.9291V25.3481H18.9844H19.0397V22.2437H18.9844ZM18.9844 25.3481L18.9291 25.3481C18.9291 25.4011 18.9003 25.4506 18.8544 25.4769L18.8818 25.5249L18.9093 25.5729C18.9896 25.5269 19.0397 25.4408 19.0397 25.3481L18.9844 25.3481ZM18.8818 25.5249L18.8545 25.4769L11.8115 29.4886L11.8389 29.5366L11.8662 29.5847L18.9092 25.5729L18.8818 25.5249ZM11.8389 29.5366L11.8115 29.4886C11.811 29.4888 11.8094 29.4897 11.8048 29.4911C11.8024 29.4919 11.8001 29.4925 11.7968 29.4935C11.7937 29.4945 11.7898 29.4956 11.7858 29.497L11.8037 29.5493L11.8216 29.6016C11.8277 29.5995 11.8279 29.5998 11.8383 29.5965C11.8456 29.5942 11.8558 29.5906 11.8662 29.5847L11.8389 29.5366ZM11.8037 29.5493L11.8588 29.5451C11.8582 29.5365 11.857 29.5282 11.8561 29.5218C11.8551 29.5148 11.8543 29.5099 11.8539 29.5051L11.7988 29.5103L11.7438 29.5154C11.7445 29.5236 11.7458 29.5317 11.7466 29.5377C11.7476 29.5443 11.7482 29.5491 11.7486 29.5535L11.8037 29.5493ZM11.7988 29.5103L11.8539 29.5051C11.8511 29.4755 11.8451 29.4411 11.8419 29.4172L11.7871 29.4243L11.7323 29.4315C11.7366 29.4647 11.7412 29.4872 11.7438 29.5154L11.7988 29.5103ZM11.7871 29.4243L11.8419 29.4172C11.8362 29.3734 11.8305 29.3276 11.8219 29.2822L11.7676 29.2925L11.7133 29.3028C11.7211 29.3444 11.7264 29.3866 11.7323 29.4315L11.7871 29.4243ZM11.7676 29.2925L11.8219 29.2822C11.815 29.2457 11.8058 29.2094 11.7979 29.1762L11.7441 29.189L11.6903 29.2017C11.6988 29.2372 11.707 29.2695 11.7133 29.3028L11.7676 29.2925ZM11.7441 29.189L11.7979 29.1762C11.7883 29.1354 11.7781 29.0937 11.7659 29.0522L11.7129 29.0679L11.6599 29.0835C11.6712 29.1219 11.6807 29.161 11.6903 29.2017L11.7441 29.189ZM11.7129 29.0679L11.7659 29.0522C11.7574 29.0235 11.7481 28.9954 11.7389 28.9682L11.6865 28.9858L11.6341 29.0034C11.6433 29.0307 11.652 29.057 11.6599 29.0835L11.7129 29.0679ZM11.6865 28.9858L11.7389 28.9683C11.7224 28.9191 11.7049 28.8699 11.6849 28.8213L11.6338 28.8423L11.5826 28.8633C11.6013 28.9088 11.618 28.9555 11.6341 29.0034L11.6865 28.9858ZM11.6338 28.8423L11.6849 28.8213C11.6774 28.8029 11.6675 28.7822 11.6609 28.7673L11.6104 28.7896L11.5598 28.8118C11.5687 28.8321 11.5755 28.846 11.5827 28.8633L11.6338 28.8423ZM11.6104 28.7896L11.661 28.7673C11.6395 28.7186 11.6169 28.6701 11.592 28.6223L11.543 28.6479L11.494 28.6736C11.5174 28.7184 11.5389 28.7645 11.5597 28.8118L11.6104 28.7896ZM11.543 28.6479L11.5919 28.6223C11.5799 28.5992 11.5671 28.5768 11.555 28.5553L11.5068 28.5825L11.4587 28.6097C11.4711 28.6316 11.4829 28.6524 11.494 28.6736L11.543 28.6479ZM11.5068 28.5825L11.555 28.5553C11.5283 28.5081 11.5005 28.4607 11.47 28.4144L11.4238 28.4448L11.3777 28.4753C11.4061 28.5184 11.4325 28.5634 11.4587 28.6097L11.5068 28.5825ZM11.4238 28.4448L11.47 28.4144C11.4613 28.4012 11.452 28.3881 11.444 28.3764L11.3984 28.4077L11.3529 28.4391C11.3618 28.4521 11.3698 28.4634 11.3777 28.4753L11.4238 28.4448ZM11.3984 28.4077L11.444 28.3764C11.4065 28.3218 11.367 28.2688 11.325 28.2175L11.2822 28.2524L11.2394 28.2874C11.2793 28.3362 11.317 28.3868 11.3529 28.439L11.3984 28.4077ZM11.2822 28.2524L11.325 28.2174C11.3234 28.2155 11.3219 28.2135 11.3198 28.2109C11.3179 28.2084 11.3155 28.2055 11.313 28.2024L11.2705 28.2378L11.228 28.2731C11.2295 28.2749 11.231 28.2769 11.2329 28.2793C11.2348 28.2816 11.2371 28.2845 11.2394 28.2875L11.2822 28.2524ZM11.2705 28.2378L11.313 28.2025C11.27 28.1507 11.2245 28.1018 11.1781 28.0545L11.1387 28.0933L11.0992 28.132C11.1443 28.1779 11.1875 28.2244 11.228 28.2731L11.2705 28.2378ZM11.1387 28.0933L11.1781 28.0545C11.1745 28.0508 11.1608 28.0361 11.1541 28.0295L11.1152 28.0688L11.0764 28.1082C11.0857 28.1174 11.087 28.1196 11.0993 28.132L11.1387 28.0933ZM11.1152 28.0688L11.1541 28.0295C11.1057 27.9817 11.0554 27.9361 11.0032 27.8926L10.9678 27.9351L10.9324 27.9775C10.9823 28.0191 11.0303 28.0626 11.0764 28.1082L11.1152 28.0688ZM10.9678 27.9351L11.0032 27.8926C11.0021 27.8917 10.9932 27.8841 10.9902 27.8816L10.9551 27.9243L10.92 27.9671C10.9255 27.9716 10.9249 27.9713 10.9324 27.9775L10.9678 27.9351ZM10.9551 27.9243L10.9902 27.8816C10.9368 27.8377 10.8816 27.7959 10.8242 27.7566L10.793 27.8022L10.7617 27.8479C10.8162 27.8852 10.8688 27.925 10.92 27.967L10.9551 27.9243ZM10.793 27.8022L10.8242 27.7566C10.8202 27.7538 10.8162 27.7513 10.8129 27.7492C10.8094 27.747 10.8068 27.7453 10.8042 27.7436L10.7734 27.7896L10.7426 27.8355C10.7465 27.8381 10.7505 27.8406 10.7535 27.8425C10.7568 27.8446 10.7594 27.8463 10.7617 27.8479L10.793 27.8022ZM10.7734 27.7896L10.8042 27.7436C10.7471 27.7053 10.6884 27.6699 10.6283 27.6367L10.6016 27.6851L10.5748 27.7335C10.6325 27.7653 10.6884 27.7991 10.7426 27.8355L10.7734 27.7896ZM10.6016 27.6851L10.6283 27.6367C10.6266 27.6357 10.6248 27.6346 10.6212 27.6324C10.6181 27.6304 10.6135 27.6275 10.6083 27.6247L10.582 27.6733L10.5558 27.722C10.5573 27.7228 10.559 27.7239 10.5624 27.726C10.5653 27.7278 10.5699 27.7307 10.5748 27.7335L10.6016 27.6851ZM10.582 27.6733L10.6083 27.6247C10.272 27.4433 9.88776 27.3388 9.47852 27.3388L9.47852 27.394L9.47851 27.4493C9.86867 27.4494 10.235 27.549 10.5558 27.722L10.582 27.6733ZM9.47852 27.394L9.47851 27.3388C9.44189 27.3388 9.40156 27.3423 9.37056 27.3437L9.37305 27.3989L9.37553 27.4542C9.41427 27.4524 9.44464 27.4493 9.47852 27.4493L9.47852 27.394ZM9.37305 27.3989L9.41576 27.434C9.42734 27.4199 9.44078 27.4079 9.45624 27.399L9.42871 27.3511L9.40118 27.3031C9.37219 27.3198 9.34885 27.3413 9.33033 27.3638L9.37305 27.3989ZM9.42871 27.3511L9.45613 27.3991L18.7081 22.1159L18.6807 22.0679L18.6532 22.0199L9.40129 27.3031L9.42871 27.3511Z" fill="black" mask="url(#path-3-inside-1_2276_627)"/>
<path d="M11.8398 29.7048L18.8828 33.7166C18.9459 33.7527 18.9854 33.8206 18.9854 33.8933V36.9978C18.9848 37.1529 18.8166 37.2501 18.6816 37.1736L9.71094 32.0505C10.8877 31.9307 11.8057 30.9377 11.8057 29.7292C11.8057 29.7201 11.8038 29.711 11.8037 29.7019C11.804 29.6983 11.8054 29.6948 11.8057 29.6912C11.817 29.6951 11.8292 29.6988 11.8398 29.7048Z" fill="black"/>
<path d="M10.0156 29.8323V29.8313H11.3398V29.8323H10.0156ZM7.10938 29.8313H8.42969V29.8323H7.10938V29.8313ZM9.22461 31.9465C8.14651 31.9462 7.25821 31.1388 7.12793 30.0959H8.47559C8.58439 30.404 8.87739 30.6251 9.22266 30.6252C9.56809 30.6252 9.8619 30.4041 9.9707 30.0959H11.3213C11.1909 31.1389 10.3029 31.9465 9.22461 31.9465Z" fill="#FE1C1D"/>
<mask id="path-7-inside-2_2276_627" fill="white">
<path d="M9.25098 27.7158C8.1726 27.716 7.28443 28.5232 7.1543 29.5664H8.50195C8.61112 29.2589 8.90412 29.0381 9.24902 29.0381C9.59395 29.0381 9.88691 29.2589 9.99609 29.5664H11.3477C11.2175 28.5232 10.3294 27.7158 9.25098 27.7158Z"/>
</mask>
<path d="M9.25098 27.7158C8.1726 27.716 7.28443 28.5232 7.1543 29.5664H8.50195C8.61112 29.2589 8.90412 29.0381 9.24902 29.0381C9.59395 29.0381 9.88691 29.2589 9.99609 29.5664H11.3477C11.2175 28.5232 10.3294 27.7158 9.25098 27.7158Z" fill="white"/>
<path d="M9.25098 27.7158L9.25092 27.3052L9.25098 27.3052L9.25098 27.7158ZM7.1543 29.5664V29.977H6.68931L6.74687 29.5156L7.1543 29.5664ZM8.50195 29.5664L8.88888 29.7038L8.79188 29.977H8.50195V29.5664ZM9.24902 29.0381L9.24898 28.6275H9.24902V29.0381ZM9.99609 29.5664V29.977H9.70619L9.60918 29.7038L9.99609 29.5664ZM11.3477 29.5664L11.7551 29.5156L11.8127 29.977H11.3477V29.5664ZM9.25098 27.7158L9.25103 28.1264C8.38273 28.1265 7.66659 28.7766 7.56172 29.6172L7.1543 29.5664L6.74687 29.5156C6.90227 28.2699 7.96246 27.3054 9.25092 27.3052L9.25098 27.7158ZM7.1543 29.5664V29.1558H8.50195V29.5664V29.977H7.1543V29.5664ZM8.50195 29.5664L8.11503 29.429C8.28023 28.9637 8.72409 28.6276 9.24898 28.6275L9.24902 29.0381L9.24907 29.4487C9.08415 29.4487 8.942 29.5541 8.88888 29.7038L8.50195 29.5664ZM9.24902 29.0381V28.6275C9.77402 28.6275 10.2178 28.9638 10.383 29.429L9.99609 29.5664L9.60918 29.7038C9.55602 29.5541 9.41387 29.4487 9.24902 29.4487V29.0381ZM9.99609 29.5664V29.1558H11.3477V29.5664V29.977H9.99609V29.5664ZM11.3477 29.5664L10.9402 29.6172C10.8353 28.7765 10.1193 28.1264 9.25097 28.1264L9.25098 27.7158L9.25098 27.3052C10.5396 27.3053 11.5996 28.2699 11.7551 29.5156L11.3477 29.5664Z" fill="black" mask="url(#path-7-inside-2_2276_627)"/>
<circle cx="9.22907" cy="29.8319" r="0.426101" transform="rotate(180 9.22907 29.8319)" fill="white" stroke="black" stroke-width="0.205292"/>
<path d="M28.7436 33.7985L27.5792 33.3741L28.5197 36.9129L28.6174 34.9262L29.9383 34.9676L29.6714 32.3486L32.191 31.5895L30.96 27.2396L39.3605 21.9298L38.4662 12.5345L27.0695 23.7523L29.4373 30.7934L27.3533 31.7024L28.7436 33.7985Z" fill="#CAB900" stroke="black" stroke-width="0.219279"/>
<mask id="path-11-inside-3_2276_627" fill="white">
<path d="M36.6162 21.3044C36.4706 21.2214 36.2891 21.3272 36.2891 21.4949V24.8357C36.2892 24.9141 36.3313 24.9873 36.3994 25.0261L43.9805 29.3435C43.9909 29.3493 44.0027 29.3522 44.0137 29.3562C44.1104 28.0965 45.1337 27.0995 46.4043 27.0437C46.4438 27.0418 46.4835 27.0378 46.5234 27.0378C46.559 27.0378 46.5947 27.0413 46.6299 27.0427C46.6314 27.0428 46.6332 27.0436 46.6348 27.0437C46.6184 27.0236 46.5985 27.0049 46.5742 26.991L36.6162 21.3044Z"/>
</mask>
<path d="M36.6162 21.3044C36.4706 21.2214 36.2891 21.3272 36.2891 21.4949V24.8357C36.2892 24.9141 36.3313 24.9873 36.3994 25.0261L43.9805 29.3435C43.9909 29.3493 44.0027 29.3522 44.0137 29.3562C44.1104 28.0965 45.1337 27.0995 46.4043 27.0437C46.4438 27.0418 46.4835 27.0378 46.5234 27.0378C46.559 27.0378 46.5947 27.0413 46.6299 27.0427C46.6314 27.0428 46.6332 27.0436 46.6348 27.0437C46.6184 27.0236 46.5985 27.0049 46.5742 26.991L36.6162 21.3044Z" fill="#FE1C1D"/>
<path d="M36.6162 21.3044L36.6467 21.2509L36.6468 21.251L36.6162 21.3044ZM36.2891 21.4949L36.3507 21.4949V21.4949H36.2891ZM36.2891 24.8357L36.2275 24.8358V24.8357H36.2891ZM36.3994 25.0261L36.3689 25.0796L36.3689 25.0796L36.3994 25.0261ZM43.9805 29.3435L43.9503 29.3972L43.95 29.397L43.9805 29.3435ZM44.0137 29.3562L44.0751 29.3609L44.0688 29.4423L43.9923 29.414L44.0137 29.3562ZM46.4043 27.0437L46.4072 27.1052L46.407 27.1052L46.4043 27.0437ZM46.5234 27.0378L46.5234 26.9763H46.5234V27.0378ZM46.6299 27.0427L46.6324 26.9812L46.6329 26.9812L46.6299 27.0427ZM46.6348 27.0437L46.6825 27.0048L46.7694 27.1116L46.6319 27.1052L46.6348 27.0437ZM46.5742 26.991L46.6048 26.9375L46.6049 26.9376L46.5742 26.991ZM36.6162 21.3044L36.5857 21.3579C36.4813 21.2984 36.3507 21.3743 36.3507 21.4949L36.2891 21.4949L36.2275 21.4949C36.2275 21.2801 36.4599 21.1444 36.6467 21.2509L36.6162 21.3044ZM36.2891 21.4949H36.3507V24.8357H36.2891H36.2275V21.4949H36.2891ZM36.2891 24.8357L36.3506 24.8356C36.3507 24.8922 36.3812 24.9449 36.4299 24.9726L36.3994 25.0261L36.3689 25.0796C36.2814 25.0297 36.2276 24.936 36.2275 24.8358L36.2891 24.8357ZM36.3994 25.0261L36.4299 24.9726L44.0109 29.29L43.9805 29.3435L43.95 29.397L36.3689 25.0796L36.3994 25.0261ZM43.9805 29.3435L44.0106 29.2898C44.011 29.29 44.0125 29.2908 44.0169 29.2923C44.0192 29.2931 44.0213 29.2938 44.0245 29.2948C44.0275 29.2958 44.0312 29.297 44.035 29.2984L44.0137 29.3562L43.9923 29.414C43.987 29.412 43.9862 29.412 43.9768 29.4088C43.97 29.4064 43.9603 29.4028 43.9503 29.3972L43.9805 29.3435ZM44.0137 29.3562L43.9523 29.3515C44.0514 28.0609 45.0998 27.0393 46.4016 26.9822L46.4043 27.0437L46.407 27.1052C45.1676 27.1597 44.1694 28.1322 44.0751 29.3609L44.0137 29.3562ZM46.4043 27.0437L46.4014 26.9822C46.4361 26.9806 46.4819 26.9763 46.5234 26.9763L46.5234 27.0378L46.5234 27.0994C46.485 27.0994 46.4515 27.1031 46.4072 27.1052L46.4043 27.0437ZM46.5234 27.0378V26.9763C46.5602 26.9763 46.6022 26.9799 46.6324 26.9812L46.6299 27.0427L46.6273 27.1043C46.5871 27.1026 46.5579 27.0994 46.5234 27.0994V27.0378ZM46.6299 27.0427L46.6329 26.9812C46.638 26.9815 46.642 26.9822 46.6442 26.9827C46.6464 26.9832 46.6483 26.9837 46.6484 26.9838C46.6491 26.9839 46.648 26.9836 46.6467 26.9833C46.6452 26.983 46.642 26.9824 46.6376 26.9822L46.6348 27.0437L46.6319 27.1052C46.6268 27.105 46.6227 27.1042 46.6205 27.1037C46.6183 27.1032 46.6164 27.1027 46.6163 27.1027C46.6156 27.1025 46.6166 27.1028 46.6179 27.1031C46.6193 27.1034 46.6226 27.104 46.6269 27.1042L46.6299 27.0427ZM46.6348 27.0437L46.587 27.0826C46.5742 27.0669 46.5598 27.0537 46.5436 27.0444L46.5742 26.991L46.6049 26.9376C46.6372 26.9561 46.6626 26.9804 46.6825 27.0048L46.6348 27.0437ZM46.5742 26.991L46.5437 27.0444L36.5857 21.3579L36.6162 21.3044L36.6468 21.251L46.6048 26.9375L46.5742 26.991Z" fill="black" mask="url(#path-11-inside-3_2276_627)"/>
<path d="M43.9951 29.5229L36.415 33.8403C36.3469 33.8791 36.3048 33.9524 36.3047 34.0308V37.3716C36.3047 37.5393 36.4862 37.6452 36.6318 37.562L46.2812 32.0503C45.0097 31.9261 44.0157 30.8554 44.0156 29.5513C44.0156 29.5386 44.0174 29.5258 44.0176 29.5132C44.0099 29.516 44.0022 29.519 43.9951 29.5229Z" fill="black"/>
<path d="M46.4795 27.4746C45.4013 27.4749 44.5129 28.2821 44.3828 29.3252H45.7334C45.8424 29.0173 46.1352 28.7969 46.4805 28.7969C46.8257 28.7969 47.1186 29.0173 47.2275 29.3252H48.5762C48.446 28.282 47.558 27.4746 46.4795 27.4746Z" fill="#FE1C1D"/>
<mask id="path-15-inside-4_2276_627" fill="white">
<path d="M46.5029 31.7053C45.4247 31.7052 44.5375 30.8977 44.4072 29.8547H45.7559C45.8647 30.1628 46.1576 30.384 46.5029 30.384C46.8483 30.384 47.1411 30.1628 47.25 29.8547H48.5996C48.4694 30.8978 47.5812 31.7051 46.5029 31.7053Z"/>
</mask>
<path d="M46.5029 31.7053C45.4247 31.7052 44.5375 30.8977 44.4072 29.8547H45.7559C45.8647 30.1628 46.1576 30.384 46.5029 30.384C46.8483 30.384 47.1411 30.1628 47.25 29.8547H48.5996C48.4694 30.8978 47.5812 31.7051 46.5029 31.7053Z" fill="white"/>
<path d="M46.5029 31.7053L46.5029 32.1159L46.503 32.1159L46.5029 31.7053ZM44.4072 29.8547V29.4442H43.9422L43.9998 29.9056L44.4072 29.8547ZM45.7559 29.8547L46.143 29.718L46.0462 29.4442H45.7559V29.8547ZM46.5029 30.384L46.5029 30.7946H46.5029V30.384ZM47.25 29.8547V29.4442H46.9596L46.8629 29.7179L47.25 29.8547ZM48.5996 29.8547L49.007 29.9056L49.0646 29.4442H48.5996V29.8547ZM46.5029 31.7053L46.503 31.2947C45.6351 31.2946 44.9197 30.6447 44.8146 29.8038L44.4072 29.8547L43.9998 29.9056C44.1554 31.1508 45.2142 32.1157 46.5029 32.1159L46.5029 31.7053ZM44.4072 29.8547V30.2653H45.7559V29.8547V29.4442H44.4072V29.8547ZM45.7559 29.8547L45.3687 29.9915C45.5334 30.4576 45.9772 30.7946 46.5029 30.7946L46.5029 30.384L46.503 29.9734C46.338 29.9734 46.196 29.868 46.143 29.718L45.7559 29.8547ZM46.5029 30.384V30.7946C47.0287 30.7946 47.4724 30.4576 47.6371 29.9915L47.25 29.8547L46.8629 29.7179C46.8098 29.868 46.6679 29.9734 46.5029 29.9734V30.384ZM47.25 29.8547V30.2653H48.5996V29.8547V29.4442H47.25V29.8547ZM48.5996 29.8547L48.1922 29.8039C48.0872 30.6444 47.371 31.2946 46.5029 31.2947L46.5029 31.7053L46.503 32.1159C47.7913 32.1157 48.8515 31.1511 49.007 29.9056L48.5996 29.8547Z" fill="black" mask="url(#path-15-inside-4_2276_627)"/>
<circle cx="0.528747" cy="0.528747" r="0.426101" transform="matrix(-1 0 0 1 47.0117 29.0615)" fill="white" stroke="black" stroke-width="0.205292"/>
<path d="M32.6025 25.9143C32.5559 25.6723 32.7969 25.4494 33.0342 25.5579L33.082 25.5842L33.3252 25.76C34.4916 26.6827 34.9463 28.2927 34.9463 29.9368C34.9463 31.3946 35.1495 35.2941 35.2363 36.8918C35.262 37.3638 34.886 37.759 34.4141 37.759H32.8955C32.4405 37.7588 32.0722 37.3878 32.0742 36.9329C32.0843 34.677 32.1083 33.4616 32.0635 30.5247V30.5129H32.0645C32.0947 29.9818 32.0851 29.4136 32.0156 28.9036C31.9456 28.3893 31.8166 27.9528 31.6201 27.6702C31.4825 27.4722 31.3348 27.2083 31.3594 26.9133L31.3945 26.4944C31.4259 26.1179 31.7585 25.8391 32.1348 25.8733L32.6025 25.9143Z" fill="#022C88" stroke="black" stroke-width="0.328919"/>
<path d="M24.3154 14.4224C24.6483 14.4226 24.9179 14.692 24.918 15.0249V24.1069C24.918 24.2261 24.9965 24.3334 25.1318 24.395C25.2683 24.4571 25.4302 24.4558 25.5488 24.3853C27.0541 23.4903 28.9371 23.7139 30.0596 24.2134C30.2333 24.2907 30.3481 24.4488 30.3848 24.6245L30.748 26.3687C30.839 26.8052 30.4441 27.1831 30.0186 27.1128C29.297 26.9936 28.1276 26.8667 27.0811 27.0454C26.0331 27.2244 25.1608 27.6975 24.9238 28.7378C24.9202 28.754 24.918 28.7728 24.918 28.7915V37.1558C24.9179 37.4887 24.6483 37.7581 24.3154 37.7583H22.0674C21.7344 37.7583 21.4649 37.4888 21.4648 37.1558V15.0249C21.4649 14.6919 21.7344 14.4224 22.0674 14.4224H24.3154Z" fill="#022C88" stroke="black" stroke-width="0.328919"/>
<path d="M23.7646 13.2722C23.9766 13.2722 24.1484 13.4441 24.1484 13.656V23.5281C24.1484 23.5497 24.1607 23.5731 24.1953 23.5876C24.2312 23.6026 24.2681 23.5973 24.292 23.5779C25.0959 22.9174 26.0664 22.6546 26.9824 22.6287C27.8972 22.6028 28.7696 22.8122 29.3896 23.1091C29.498 23.1612 29.5705 23.2611 29.5938 23.3728L30.0498 25.5603C30.1073 25.837 29.8583 26.076 29.5879 26.0232C29.0005 25.9085 27.75 25.7147 26.585 25.8552C25.4134 25.9965 24.3992 26.4633 24.1494 27.6082C24.1488 27.6111 24.1484 27.6154 24.1484 27.6189V36.2253C24.1482 36.4371 23.9764 36.6082 23.7646 36.6082H21.0791C20.8673 36.6082 20.6956 36.4371 20.6953 36.2253V13.656C20.6953 13.4441 20.8672 13.2722 21.0791 13.2722H23.7646Z" fill="white" stroke="black" stroke-width="0.328919"/>
<path d="M31.9443 24.7634C31.8977 24.5214 32.1387 24.2986 32.376 24.407L32.4238 24.4333L32.667 24.6091C33.8334 25.5318 34.2881 27.1418 34.2881 28.7859C34.2881 30.418 34.5426 35.1085 34.6035 36.2048C34.6158 36.427 34.438 36.6082 34.2197 36.6082H31.7979C31.5852 36.6081 31.4134 36.4344 31.4141 36.2224C31.4225 33.6725 31.453 32.4964 31.4053 29.3738V29.3621H31.4062C31.44 28.7695 31.4241 28.1316 31.3311 27.5798C31.2366 27.0197 31.0671 26.5823 30.8203 26.3542C30.7349 26.2752 30.669 26.154 30.6807 26.0144L30.7617 25.0457C30.7794 24.8333 30.9665 24.6758 31.1787 24.6951L31.9443 24.7634Z" fill="white" stroke="black" stroke-width="0.328919"/>
<path d="M27.8002 32.9692L26.6358 32.5448L27.5763 36.0835L27.674 34.0969L28.9949 34.1382L28.728 31.5192L31.2477 30.7601L30.0167 26.4102L38.4172 21.1005L37.5229 11.7051L26.1261 22.923L28.494 29.964L26.41 30.8731L27.8002 32.9692Z" fill="#F9E830" stroke="black" stroke-width="0.328919"/>
</g>
<defs>
<filter id="filter0_i_2276_627" x="0" y="0" width="55.1816" height="55.1816" filterUnits="userSpaceOnUse" color-interpolation-filters="sRGB">
<feFlood flood-opacity="0" result="BackgroundImageFix"/>
<feBlend mode="normal" in="SourceGraphic" in2="BackgroundImageFix" result="shape"/>
<feColorMatrix in="SourceAlpha" type="matrix" values="0 0 0 0 0 0 0 0 0 0 0 0 0 0 0 0 0 0 127 0" result="hardAlpha"/>
<feMorphology radius="2.69179" operator="erode" in="SourceAlpha" result="effect1_innerShadow_2276_627"/>
<feOffset/>
<feGaussianBlur stdDeviation="2.69179"/>
<feComposite in2="hardAlpha" operator="arithmetic" k2="-1" k3="1"/>
<feColorMatrix type="matrix" values="0 0 0 0 0 0 0 0 0 0 0 0 0 0 0 0 0 0 1 0"/>
<feBlend mode="overlay" in2="shape" result="effect1_innerShadow_2276_627"/>
</filter>
<radialGradient id="paint0_radial_2276_627" cx="0" cy="0" r="1" gradientUnits="userSpaceOnUse" gradientTransform="translate(22.8809 22.2072) rotate(48.3665) scale(32.4135)">
<stop offset="0.232381" stop-color="white"/>
<stop offset="0.699526" stop-color="#DAD1C9"/>
</radialGradient>
<clipPath id="clip0_2276_627">
<rect width="41.4681" height="26.7239" fill="white" transform="translate(7.08594 11.6946)"/>
</clipPath>
</defs>
</svg>
