<svg width="116" height="33" viewBox="0 0 116 33" fill="none" xmlns="http://www.w3.org/2000/svg">
<g filter="url(#filter0_d_2360_31467)">
<path d="M86.4482 0.827393C100.556 0.827356 113.056 -0.391151 113.057 7.84888C113.056 15.9166 103.875 29.216 87.5098 29.7708V29.7913H57.71V29.7922H25.7783V29.7883C12.1374 29.7124 0.76409 28.1059 0.763672 20.0735C0.763908 11.9872 7.4262 1.24052 25.7783 0.841064V0.828369H55.5791V0.827393H86.4482Z" fill="url(#paint0_linear_2360_31467)"/>
</g>
<mask id="path-2-outside-1_2360_31467" maskUnits="userSpaceOnUse" x="10.3711" y="10.0576" width="93" height="10" fill="black">
<rect fill="white" x="10.3711" y="10.0576" width="93" height="10"/>
<path d="M14.5946 19.0576L14.1788 13.2262H13.5741L13.9197 11.3903H14.9186L15.3343 17.2218H15.7123L15.3775 19.0576H14.5946ZM11.5763 19.0576L12.9261 11.3903H14.3624L13.0125 19.0576H11.5763ZM15.2047 19.0576L16.5546 11.3903H17.9909L16.641 19.0576H15.2047ZM19.8645 19.0576L21.2144 11.3903H22.6506L21.3008 19.0576H19.8645ZM18.1637 19.0576L18.3958 17.7401H23.2446L23.0124 19.0576H18.1637ZM19.2814 12.7078L19.5135 11.3903H24.3623L24.1301 12.7078H19.2814ZM26.3385 19.0576L27.6884 11.3903H29.1246L27.7748 19.0576H26.3385ZM25.3882 12.7078L25.6204 11.3903H31.2142L30.9821 12.7078H25.3882ZM33.3417 19.1656C32.4093 19.1656 31.621 19.0072 30.9767 18.6905L31.3114 17.3298C32.0494 17.6393 32.7603 17.7941 33.4442 17.7941C33.9518 17.7941 34.3352 17.7239 34.5943 17.5836C34.8535 17.4396 34.9831 17.2308 34.9831 16.9572C34.9831 16.8204 34.9471 16.7052 34.8751 16.6116C34.8031 16.5145 34.6825 16.4155 34.5133 16.3147L32.9475 15.359C32.6091 15.1502 32.3715 14.891 32.2348 14.5814C32.1016 14.2719 32.035 13.9695 32.035 13.6743C32.035 12.8896 32.2636 12.2956 32.7207 11.8925C33.1779 11.4857 33.8402 11.2823 34.7077 11.2823C35.73 11.2823 36.5382 11.5685 37.1321 12.1409L36.3492 13.3395C36.0792 13.1164 35.7984 12.9472 35.5068 12.832C35.2189 12.7132 34.9309 12.6538 34.6429 12.6538C34.2794 12.6538 34.0022 12.7186 33.8114 12.8482C33.6242 12.9778 33.5306 13.1686 33.5306 13.4205C33.5306 13.5825 33.5774 13.7337 33.671 13.8741C33.7646 14.0145 33.8996 14.1405 34.076 14.2521L35.523 15.1376C35.8866 15.3572 36.1368 15.6055 36.2736 15.8827C36.4104 16.1563 36.4788 16.4551 36.4788 16.779C36.4788 17.5638 36.2124 18.1577 35.6796 18.5609C35.1505 18.964 34.3712 19.1656 33.3417 19.1656ZM47.6449 19.0576L48.9948 11.3903H50.4311L49.0812 19.0576H47.6449ZM43.9301 19.0576L45.2799 11.3903H46.7162L45.3663 19.0576H43.9301ZM44.9128 15.8989L45.091 14.5814H49.47L49.2918 15.8989H44.9128ZM49.8965 19.0576L53.4548 11.3849H55.2312C55.3104 11.8961 55.3842 12.4072 55.4526 12.9184C55.521 13.4295 55.5858 13.9407 55.647 14.4518C55.7082 14.963 55.764 15.476 55.8144 15.9907C55.8648 16.5019 55.9116 17.013 55.9547 17.5242C55.9979 18.0353 56.0375 18.5465 56.0735 19.0576H54.6157C54.5977 18.6581 54.5761 18.2585 54.5509 17.8589C54.5257 17.4558 54.4969 17.0544 54.4645 16.6548C54.4357 16.2553 54.4033 15.8557 54.3673 15.4562C54.3349 15.053 54.3007 14.6516 54.2647 14.2521C54.2287 13.8489 54.1909 13.4475 54.1513 13.048H53.9785L51.3544 19.0576H49.8965ZM51.2896 17.6052L51.4732 16.2877H55.3608L55.1772 17.6052H51.2896ZM60.1016 19.1656C59.4572 19.1656 58.9191 19.0576 58.4871 18.8416C58.0588 18.6221 57.7366 18.2963 57.5206 17.8643C57.3046 17.4288 57.1966 16.8852 57.1966 16.2337C57.1966 15.5029 57.3028 14.8352 57.5152 14.2305C57.7312 13.6257 58.0354 13.1038 58.4277 12.6646C58.8237 12.2255 59.2916 11.8853 59.8316 11.6441C60.3751 11.4029 60.9745 11.2823 61.6296 11.2823C62.4755 11.2823 63.1325 11.5325 63.6004 12.0329L62.7743 13.2478C62.4072 12.8446 61.9734 12.643 61.473 12.643C60.9403 12.643 60.4651 12.7978 60.0476 13.1074C59.63 13.4133 59.3006 13.8345 59.0595 14.3709C58.8183 14.9036 58.6977 15.5119 58.6977 16.1959C58.6977 16.5523 58.7625 16.851 58.8921 17.0922C59.0253 17.3298 59.2232 17.508 59.486 17.6268C59.7488 17.7455 60.0746 17.8049 60.4633 17.8049C61.0789 17.8049 61.7052 17.6969 62.3424 17.481L62.418 18.7984C61.6584 19.0432 60.8863 19.1656 60.1016 19.1656ZM64.3564 17.265L64.4266 15.8719C65.3013 15.7495 66.0302 15.4777 66.6134 15.0566C67.2001 14.6354 67.6627 14.1099 68.001 13.4799C68.343 12.8464 68.5806 12.1499 68.7138 11.3903H70.1608C69.9844 12.4126 69.6461 13.3449 69.1457 14.1873C68.649 15.026 67.9992 15.7171 67.1965 16.2607C66.3938 16.8006 65.4471 17.1354 64.3564 17.265ZM63.4223 19.0576L64.7721 11.3903H66.2084L64.8585 19.0576H63.4223ZM67.4395 19.0576L66.4136 15.6991L67.7797 15.1484L69.0701 19.0576H67.4395ZM72.218 19.1656C71.2857 19.1656 70.4974 19.0072 69.8531 18.6905L70.1878 17.3298C70.9258 17.6393 71.6367 17.7941 72.3206 17.7941C72.8282 17.7941 73.2115 17.7239 73.4707 17.5836C73.7299 17.4396 73.8595 17.2308 73.8595 16.9572C73.8595 16.8204 73.8235 16.7052 73.7515 16.6116C73.6795 16.5145 73.5589 16.4155 73.3897 16.3147L71.8239 15.359C71.4855 15.1502 71.2479 14.891 71.1111 14.5814C70.978 14.2719 70.9114 13.9695 70.9114 13.6743C70.9114 12.8896 71.1399 12.2956 71.5971 11.8925C72.0543 11.4857 72.7166 11.2823 73.5841 11.2823C74.6064 11.2823 75.4145 11.5685 76.0085 12.1409L75.2256 13.3395C74.9556 13.1164 74.6748 12.9472 74.3832 12.832C74.0953 12.7132 73.8073 12.6538 73.5193 12.6538C73.1558 12.6538 72.8786 12.7186 72.6878 12.8482C72.5006 12.9778 72.407 13.1686 72.407 13.4205C72.407 13.5825 72.4538 13.7337 72.5474 13.8741C72.641 14.0145 72.776 14.1405 72.9524 14.2521L74.3994 15.1376C74.763 15.3572 75.0132 15.6055 75.15 15.8827C75.2868 16.1563 75.3551 16.4551 75.3551 16.779C75.3551 17.5638 75.0888 18.1577 74.556 18.5609C74.0269 18.964 73.2475 19.1656 72.218 19.1656ZM85.3442 19.1656C84.8763 19.1656 84.4659 19.0918 84.1131 18.9442C83.764 18.793 83.4904 18.5825 83.2924 18.3125C83.098 18.0425 83.0008 17.7293 83.0008 17.373C83.0008 16.8726 83.1286 16.4371 83.3842 16.0663C83.6434 15.6919 84.0051 15.4004 84.4695 15.1916C84.9339 14.9828 85.4756 14.8784 86.0947 14.8784C86.8147 14.8784 87.3924 15.0368 87.828 15.3536C88.2671 15.6703 88.4867 16.0879 88.4867 16.6062C88.4867 17.1174 88.3553 17.5656 88.0926 17.9507C87.8298 18.3323 87.4626 18.6311 86.9911 18.847C86.5231 19.0594 85.9742 19.1656 85.3442 19.1656ZM85.6358 17.8049C85.9058 17.8049 86.1415 17.7545 86.3431 17.6537C86.5483 17.5494 86.7067 17.4054 86.8183 17.2218C86.9299 17.0382 86.9857 16.824 86.9857 16.5792C86.9857 16.3129 86.8867 16.0987 86.6887 15.9367C86.4907 15.7711 86.2279 15.6883 85.9004 15.6883C85.6232 15.6883 85.3784 15.7405 85.166 15.8449C84.9573 15.9457 84.7935 16.0879 84.6747 16.2715C84.5595 16.4515 84.5019 16.6638 84.5019 16.9086C84.5019 17.1786 84.6063 17.3964 84.8151 17.562C85.0238 17.7239 85.2974 17.8049 85.6358 17.8049ZM84.9231 15.2456L85.0202 14.6948H87.2556L87.1585 15.2456H84.9231ZM86.2459 14.3277C86.5987 14.3277 86.8831 14.2413 87.0991 14.0685C87.3186 13.8957 87.4284 13.6671 87.4284 13.3827C87.4284 13.1596 87.3366 12.9814 87.1531 12.8482C86.9731 12.7114 86.7337 12.643 86.4349 12.643C86.1073 12.643 85.8428 12.733 85.6412 12.913C85.4432 13.0894 85.3442 13.3216 85.3442 13.6095C85.3442 13.8219 85.427 13.9947 85.5926 14.1279C85.7582 14.2611 85.976 14.3277 86.2459 14.3277ZM86.0624 15.0836C85.4072 15.0836 84.8781 14.9396 84.4749 14.6516C84.0753 14.3637 83.8756 13.9857 83.8756 13.5177C83.8756 13.0714 83.9943 12.6808 84.2319 12.346C84.4695 12.0113 84.8025 11.7503 85.2308 11.5631C85.6628 11.3759 86.1631 11.2823 86.7319 11.2823C87.3906 11.2823 87.9216 11.4335 88.3247 11.7359C88.7279 12.0383 88.9295 12.4378 88.9295 12.9346C88.9295 13.3665 88.8089 13.7445 88.5677 14.0685C88.3301 14.3889 87.9972 14.639 87.5688 14.819C87.1405 14.9954 86.6383 15.0836 86.0624 15.0836ZM92.0126 19.1656C91.739 19.1656 91.5068 19.0702 91.3161 18.8794C91.1253 18.6851 91.0299 18.4529 91.0299 18.1829C91.0299 17.9093 91.1253 17.6771 91.3161 17.4864C91.5068 17.2956 91.739 17.2002 92.0126 17.2002C92.2862 17.2002 92.5183 17.2956 92.7091 17.4864C92.8999 17.6771 92.9953 17.9093 92.9953 18.1829C92.9953 18.4529 92.8999 18.6851 92.7091 18.8794C92.5183 19.0702 92.2862 19.1656 92.0126 19.1656ZM98.3354 19.1656C97.6119 19.1656 97.0629 18.9262 96.6886 18.4475C96.3178 17.9651 96.1324 17.2578 96.1324 16.3255C96.1324 15.2204 96.2674 14.2935 96.5374 13.5447C96.8074 12.796 97.2087 12.2327 97.7415 11.8547C98.2742 11.4731 98.933 11.2823 99.7177 11.2823C100.438 11.2823 100.981 11.5181 101.348 11.9897C101.719 12.4576 101.904 13.1488 101.904 14.0631C101.904 15.179 101.769 16.1167 101.5 16.8762C101.23 17.6321 100.83 18.2027 100.301 18.5879C99.7717 18.973 99.1165 19.1656 98.3354 19.1656ZM98.8376 16.2607C98.672 16.2607 98.5424 16.1887 98.4488 16.0447C98.3588 15.9007 98.3138 15.6991 98.3138 15.44C98.3138 15.0764 98.3912 14.7938 98.546 14.5922C98.7008 14.3871 98.915 14.2845 99.1885 14.2845C99.3577 14.2845 99.4873 14.3529 99.5773 14.4896C99.6709 14.6264 99.7177 14.8172 99.7177 15.062C99.7177 15.44 99.6403 15.7351 99.4855 15.9475C99.3307 16.1563 99.1147 16.2607 98.8376 16.2607ZM98.5676 17.8049C98.9708 17.8049 99.3073 17.6663 99.5773 17.3892C99.8509 17.112 100.056 16.6998 100.193 16.1527C100.333 15.6055 100.403 14.9288 100.403 14.1225C100.403 13.6365 100.324 13.2694 100.166 13.021C100.011 12.769 99.7807 12.643 99.4747 12.643C99.0715 12.643 98.7332 12.7816 98.4596 13.0588C98.186 13.3323 97.979 13.7409 97.8387 14.2845C97.7019 14.8244 97.6335 15.4957 97.6335 16.2985C97.6335 16.7916 97.7127 17.166 97.8711 17.4216C98.0294 17.6771 98.2616 17.8049 98.5676 17.8049Z"/>
</mask>
<path d="M14.5946 19.0576L14.1788 13.2262H13.5741L13.9197 11.3903H14.9186L15.3343 17.2218H15.7123L15.3775 19.0576H14.5946ZM11.5763 19.0576L12.9261 11.3903H14.3624L13.0125 19.0576H11.5763ZM15.2047 19.0576L16.5546 11.3903H17.9909L16.641 19.0576H15.2047ZM19.8645 19.0576L21.2144 11.3903H22.6506L21.3008 19.0576H19.8645ZM18.1637 19.0576L18.3958 17.7401H23.2446L23.0124 19.0576H18.1637ZM19.2814 12.7078L19.5135 11.3903H24.3623L24.1301 12.7078H19.2814ZM26.3385 19.0576L27.6884 11.3903H29.1246L27.7748 19.0576H26.3385ZM25.3882 12.7078L25.6204 11.3903H31.2142L30.9821 12.7078H25.3882ZM33.3417 19.1656C32.4093 19.1656 31.621 19.0072 30.9767 18.6905L31.3114 17.3298C32.0494 17.6393 32.7603 17.7941 33.4442 17.7941C33.9518 17.7941 34.3352 17.7239 34.5943 17.5836C34.8535 17.4396 34.9831 17.2308 34.9831 16.9572C34.9831 16.8204 34.9471 16.7052 34.8751 16.6116C34.8031 16.5145 34.6825 16.4155 34.5133 16.3147L32.9475 15.359C32.6091 15.1502 32.3715 14.891 32.2348 14.5814C32.1016 14.2719 32.035 13.9695 32.035 13.6743C32.035 12.8896 32.2636 12.2956 32.7207 11.8925C33.1779 11.4857 33.8402 11.2823 34.7077 11.2823C35.73 11.2823 36.5382 11.5685 37.1321 12.1409L36.3492 13.3395C36.0792 13.1164 35.7984 12.9472 35.5068 12.832C35.2189 12.7132 34.9309 12.6538 34.6429 12.6538C34.2794 12.6538 34.0022 12.7186 33.8114 12.8482C33.6242 12.9778 33.5306 13.1686 33.5306 13.4205C33.5306 13.5825 33.5774 13.7337 33.671 13.8741C33.7646 14.0145 33.8996 14.1405 34.076 14.2521L35.523 15.1376C35.8866 15.3572 36.1368 15.6055 36.2736 15.8827C36.4104 16.1563 36.4788 16.4551 36.4788 16.779C36.4788 17.5638 36.2124 18.1577 35.6796 18.5609C35.1505 18.964 34.3712 19.1656 33.3417 19.1656ZM47.6449 19.0576L48.9948 11.3903H50.4311L49.0812 19.0576H47.6449ZM43.9301 19.0576L45.2799 11.3903H46.7162L45.3663 19.0576H43.9301ZM44.9128 15.8989L45.091 14.5814H49.47L49.2918 15.8989H44.9128ZM49.8965 19.0576L53.4548 11.3849H55.2312C55.3104 11.8961 55.3842 12.4072 55.4526 12.9184C55.521 13.4295 55.5858 13.9407 55.647 14.4518C55.7082 14.963 55.764 15.476 55.8144 15.9907C55.8648 16.5019 55.9116 17.013 55.9547 17.5242C55.9979 18.0353 56.0375 18.5465 56.0735 19.0576H54.6157C54.5977 18.6581 54.5761 18.2585 54.5509 17.8589C54.5257 17.4558 54.4969 17.0544 54.4645 16.6548C54.4357 16.2553 54.4033 15.8557 54.3673 15.4562C54.3349 15.053 54.3007 14.6516 54.2647 14.2521C54.2287 13.8489 54.1909 13.4475 54.1513 13.048H53.9785L51.3544 19.0576H49.8965ZM51.2896 17.6052L51.4732 16.2877H55.3608L55.1772 17.6052H51.2896ZM60.1016 19.1656C59.4572 19.1656 58.9191 19.0576 58.4871 18.8416C58.0588 18.6221 57.7366 18.2963 57.5206 17.8643C57.3046 17.4288 57.1966 16.8852 57.1966 16.2337C57.1966 15.5029 57.3028 14.8352 57.5152 14.2305C57.7312 13.6257 58.0354 13.1038 58.4277 12.6646C58.8237 12.2255 59.2916 11.8853 59.8316 11.6441C60.3751 11.4029 60.9745 11.2823 61.6296 11.2823C62.4755 11.2823 63.1325 11.5325 63.6004 12.0329L62.7743 13.2478C62.4072 12.8446 61.9734 12.643 61.473 12.643C60.9403 12.643 60.4651 12.7978 60.0476 13.1074C59.63 13.4133 59.3006 13.8345 59.0595 14.3709C58.8183 14.9036 58.6977 15.5119 58.6977 16.1959C58.6977 16.5523 58.7625 16.851 58.8921 17.0922C59.0253 17.3298 59.2232 17.508 59.486 17.6268C59.7488 17.7455 60.0746 17.8049 60.4633 17.8049C61.0789 17.8049 61.7052 17.6969 62.3424 17.481L62.418 18.7984C61.6584 19.0432 60.8863 19.1656 60.1016 19.1656ZM64.3564 17.265L64.4266 15.8719C65.3013 15.7495 66.0302 15.4777 66.6134 15.0566C67.2001 14.6354 67.6627 14.1099 68.001 13.4799C68.343 12.8464 68.5806 12.1499 68.7138 11.3903H70.1608C69.9844 12.4126 69.6461 13.3449 69.1457 14.1873C68.649 15.026 67.9992 15.7171 67.1965 16.2607C66.3938 16.8006 65.4471 17.1354 64.3564 17.265ZM63.4223 19.0576L64.7721 11.3903H66.2084L64.8585 19.0576H63.4223ZM67.4395 19.0576L66.4136 15.6991L67.7797 15.1484L69.0701 19.0576H67.4395ZM72.218 19.1656C71.2857 19.1656 70.4974 19.0072 69.8531 18.6905L70.1878 17.3298C70.9258 17.6393 71.6367 17.7941 72.3206 17.7941C72.8282 17.7941 73.2115 17.7239 73.4707 17.5836C73.7299 17.4396 73.8595 17.2308 73.8595 16.9572C73.8595 16.8204 73.8235 16.7052 73.7515 16.6116C73.6795 16.5145 73.5589 16.4155 73.3897 16.3147L71.8239 15.359C71.4855 15.1502 71.2479 14.891 71.1111 14.5814C70.978 14.2719 70.9114 13.9695 70.9114 13.6743C70.9114 12.8896 71.1399 12.2956 71.5971 11.8925C72.0543 11.4857 72.7166 11.2823 73.5841 11.2823C74.6064 11.2823 75.4145 11.5685 76.0085 12.1409L75.2256 13.3395C74.9556 13.1164 74.6748 12.9472 74.3832 12.832C74.0953 12.7132 73.8073 12.6538 73.5193 12.6538C73.1558 12.6538 72.8786 12.7186 72.6878 12.8482C72.5006 12.9778 72.407 13.1686 72.407 13.4205C72.407 13.5825 72.4538 13.7337 72.5474 13.8741C72.641 14.0145 72.776 14.1405 72.9524 14.2521L74.3994 15.1376C74.763 15.3572 75.0132 15.6055 75.15 15.8827C75.2868 16.1563 75.3551 16.4551 75.3551 16.779C75.3551 17.5638 75.0888 18.1577 74.556 18.5609C74.0269 18.964 73.2475 19.1656 72.218 19.1656ZM85.3442 19.1656C84.8763 19.1656 84.4659 19.0918 84.1131 18.9442C83.764 18.793 83.4904 18.5825 83.2924 18.3125C83.098 18.0425 83.0008 17.7293 83.0008 17.373C83.0008 16.8726 83.1286 16.4371 83.3842 16.0663C83.6434 15.6919 84.0051 15.4004 84.4695 15.1916C84.9339 14.9828 85.4756 14.8784 86.0947 14.8784C86.8147 14.8784 87.3924 15.0368 87.828 15.3536C88.2671 15.6703 88.4867 16.0879 88.4867 16.6062C88.4867 17.1174 88.3553 17.5656 88.0926 17.9507C87.8298 18.3323 87.4626 18.6311 86.9911 18.847C86.5231 19.0594 85.9742 19.1656 85.3442 19.1656ZM85.6358 17.8049C85.9058 17.8049 86.1415 17.7545 86.3431 17.6537C86.5483 17.5494 86.7067 17.4054 86.8183 17.2218C86.9299 17.0382 86.9857 16.824 86.9857 16.5792C86.9857 16.3129 86.8867 16.0987 86.6887 15.9367C86.4907 15.7711 86.2279 15.6883 85.9004 15.6883C85.6232 15.6883 85.3784 15.7405 85.166 15.8449C84.9573 15.9457 84.7935 16.0879 84.6747 16.2715C84.5595 16.4515 84.5019 16.6638 84.5019 16.9086C84.5019 17.1786 84.6063 17.3964 84.8151 17.562C85.0238 17.7239 85.2974 17.8049 85.6358 17.8049ZM84.9231 15.2456L85.0202 14.6948H87.2556L87.1585 15.2456H84.9231ZM86.2459 14.3277C86.5987 14.3277 86.8831 14.2413 87.0991 14.0685C87.3186 13.8957 87.4284 13.6671 87.4284 13.3827C87.4284 13.1596 87.3366 12.9814 87.1531 12.8482C86.9731 12.7114 86.7337 12.643 86.4349 12.643C86.1073 12.643 85.8428 12.733 85.6412 12.913C85.4432 13.0894 85.3442 13.3216 85.3442 13.6095C85.3442 13.8219 85.427 13.9947 85.5926 14.1279C85.7582 14.2611 85.976 14.3277 86.2459 14.3277ZM86.0624 15.0836C85.4072 15.0836 84.8781 14.9396 84.4749 14.6516C84.0753 14.3637 83.8756 13.9857 83.8756 13.5177C83.8756 13.0714 83.9943 12.6808 84.2319 12.346C84.4695 12.0113 84.8025 11.7503 85.2308 11.5631C85.6628 11.3759 86.1631 11.2823 86.7319 11.2823C87.3906 11.2823 87.9216 11.4335 88.3247 11.7359C88.7279 12.0383 88.9295 12.4378 88.9295 12.9346C88.9295 13.3665 88.8089 13.7445 88.5677 14.0685C88.3301 14.3889 87.9972 14.639 87.5688 14.819C87.1405 14.9954 86.6383 15.0836 86.0624 15.0836ZM92.0126 19.1656C91.739 19.1656 91.5068 19.0702 91.3161 18.8794C91.1253 18.6851 91.0299 18.4529 91.0299 18.1829C91.0299 17.9093 91.1253 17.6771 91.3161 17.4864C91.5068 17.2956 91.739 17.2002 92.0126 17.2002C92.2862 17.2002 92.5183 17.2956 92.7091 17.4864C92.8999 17.6771 92.9953 17.9093 92.9953 18.1829C92.9953 18.4529 92.8999 18.6851 92.7091 18.8794C92.5183 19.0702 92.2862 19.1656 92.0126 19.1656ZM98.3354 19.1656C97.6119 19.1656 97.0629 18.9262 96.6886 18.4475C96.3178 17.9651 96.1324 17.2578 96.1324 16.3255C96.1324 15.2204 96.2674 14.2935 96.5374 13.5447C96.8074 12.796 97.2087 12.2327 97.7415 11.8547C98.2742 11.4731 98.933 11.2823 99.7177 11.2823C100.438 11.2823 100.981 11.5181 101.348 11.9897C101.719 12.4576 101.904 13.1488 101.904 14.0631C101.904 15.179 101.769 16.1167 101.5 16.8762C101.23 17.6321 100.83 18.2027 100.301 18.5879C99.7717 18.973 99.1165 19.1656 98.3354 19.1656ZM98.8376 16.2607C98.672 16.2607 98.5424 16.1887 98.4488 16.0447C98.3588 15.9007 98.3138 15.6991 98.3138 15.44C98.3138 15.0764 98.3912 14.7938 98.546 14.5922C98.7008 14.3871 98.915 14.2845 99.1885 14.2845C99.3577 14.2845 99.4873 14.3529 99.5773 14.4896C99.6709 14.6264 99.7177 14.8172 99.7177 15.062C99.7177 15.44 99.6403 15.7351 99.4855 15.9475C99.3307 16.1563 99.1147 16.2607 98.8376 16.2607ZM98.5676 17.8049C98.9708 17.8049 99.3073 17.6663 99.5773 17.3892C99.8509 17.112 100.056 16.6998 100.193 16.1527C100.333 15.6055 100.403 14.9288 100.403 14.1225C100.403 13.6365 100.324 13.2694 100.166 13.021C100.011 12.769 99.7807 12.643 99.4747 12.643C99.0715 12.643 98.7332 12.7816 98.4596 13.0588C98.186 13.3323 97.979 13.7409 97.8387 14.2845C97.7019 14.8244 97.6335 15.4957 97.6335 16.2985C97.6335 16.7916 97.7127 17.166 97.8711 17.4216C98.0294 17.6771 98.2616 17.8049 98.5676 17.8049Z" fill="#545454"/>
<path d="M14.5946 19.0576L13.8326 19.1119L13.8832 19.8215H14.5946V19.0576ZM14.1788 13.2262L14.9408 13.1718L14.8902 12.4623H14.1788V13.2262ZM13.5741 13.2262L12.8234 13.0849L12.653 13.99H13.5741V13.2262ZM13.9197 11.3903V10.6264H13.2861L13.169 11.249L13.9197 11.3903ZM14.9186 11.3903L15.6805 11.336L15.6299 10.6264H14.9186V11.3903ZM15.3343 17.2218L14.5724 17.2761L14.623 17.9857H15.3343V17.2218ZM15.7123 17.2218L16.4638 17.3588L16.6281 16.4579H15.7123V17.2218ZM15.3775 19.0576V19.8215H16.0147L16.129 19.1947L15.3775 19.0576ZM11.5763 19.0576L10.824 18.9252L10.6662 19.8215H11.5763V19.0576ZM12.9261 11.3903V10.6264H12.285L12.1738 11.2579L12.9261 11.3903ZM14.3624 11.3903L15.1147 11.5228L15.2725 10.6264H14.3624V11.3903ZM13.0125 19.0576V19.8215H13.6537L13.7649 19.1901L13.0125 19.0576ZM15.2047 19.0576L14.4524 18.9252L14.2946 19.8215H15.2047V19.0576ZM16.5546 11.3903V10.6264H15.9135L15.8023 11.2579L16.5546 11.3903ZM17.9909 11.3903L18.7432 11.5228L18.901 10.6264H17.9909V11.3903ZM16.641 19.0576V19.8215H17.2822L17.3933 19.1901L16.641 19.0576ZM14.5946 19.0576L15.3565 19.0033L14.9408 13.1718L14.1788 13.2262L13.4169 13.2805L13.8326 19.1119L14.5946 19.0576ZM14.1788 13.2262V12.4623H13.5741V13.2262V13.99H14.1788V13.2262ZM13.5741 13.2262L14.3248 13.3675L14.6704 11.5316L13.9197 11.3903L13.169 11.249L12.8234 13.0849L13.5741 13.2262ZM13.9197 11.3903V12.1542H14.9186V11.3903V10.6264H13.9197V11.3903ZM14.9186 11.3903L14.1566 11.4447L14.5724 17.2761L15.3343 17.2218L16.0963 17.1675L15.6805 11.336L14.9186 11.3903ZM15.3343 17.2218V17.9857H15.7123V17.2218V16.4579H15.3343V17.2218ZM15.7123 17.2218L14.9608 17.0848L14.626 18.9206L15.3775 19.0576L16.129 19.1947L16.4638 17.3588L15.7123 17.2218ZM15.3775 19.0576V18.2937H14.5946V19.0576V19.8215H15.3775V19.0576ZM11.5763 19.0576L12.3286 19.1901L13.6785 11.5228L12.9261 11.3903L12.1738 11.2579L10.824 18.9252L11.5763 19.0576ZM12.9261 11.3903V12.1542H14.3624V11.3903V10.6264H12.9261V11.3903ZM14.3624 11.3903L13.6101 11.2579L12.2602 18.9252L13.0125 19.0576L13.7649 19.1901L15.1147 11.5228L14.3624 11.3903ZM13.0125 19.0576V18.2937H11.5763V19.0576V19.8215H13.0125V19.0576ZM15.2047 19.0576L15.9571 19.1901L17.3069 11.5228L16.5546 11.3903L15.8023 11.2579L14.4524 18.9252L15.2047 19.0576ZM16.5546 11.3903V12.1542H17.9909V11.3903V10.6264H16.5546V11.3903ZM17.9909 11.3903L17.2386 11.2579L15.8887 18.9252L16.641 19.0576L17.3933 19.1901L18.7432 11.5228L17.9909 11.3903ZM16.641 19.0576V18.2937H15.2047V19.0576V19.8215H16.641V19.0576ZM19.8645 19.0576L19.1122 18.9252L18.9544 19.8215H19.8645V19.0576ZM21.2144 11.3903V10.6264H20.5732L20.4621 11.2579L21.2144 11.3903ZM22.6506 11.3903L23.403 11.5228L23.5608 10.6264H22.6506V11.3903ZM21.3008 19.0576V19.8215H21.9419L22.0531 19.1901L21.3008 19.0576ZM18.1637 19.0576L17.4114 18.925L17.2534 19.8215H18.1637V19.0576ZM18.3958 17.7401V16.9763H17.7548L17.6435 17.6076L18.3958 17.7401ZM23.2446 17.7401L23.9969 17.8727L24.1549 16.9763H23.2446V17.7401ZM23.0124 19.0576V19.8215H23.6535L23.7647 19.1902L23.0124 19.0576ZM19.2814 12.7078L18.5291 12.5752L18.3711 13.4717H19.2814V12.7078ZM19.5135 11.3903V10.6264H18.8725L18.7612 11.2578L19.5135 11.3903ZM24.3623 11.3903L25.1146 11.5229L25.2726 10.6264H24.3623V11.3903ZM24.1301 12.7078V13.4717H24.7711L24.8824 12.8404L24.1301 12.7078ZM19.8645 19.0576L20.6168 19.1901L21.9667 11.5228L21.2144 11.3903L20.4621 11.2579L19.1122 18.9252L19.8645 19.0576ZM21.2144 11.3903V12.1542H22.6506V11.3903V10.6264H21.2144V11.3903ZM22.6506 11.3903L21.8983 11.2579L20.5485 18.9252L21.3008 19.0576L22.0531 19.1901L23.403 11.5228L22.6506 11.3903ZM21.3008 19.0576V18.2937H19.8645V19.0576V19.8215H21.3008V19.0576ZM18.1637 19.0576L18.916 19.1902L19.1481 17.8727L18.3958 17.7401L17.6435 17.6076L17.4114 18.925L18.1637 19.0576ZM18.3958 17.7401V18.504H23.2446V17.7401V16.9763H18.3958V17.7401ZM23.2446 17.7401L22.4923 17.6076L22.2601 18.925L23.0124 19.0576L23.7647 19.1902L23.9969 17.8727L23.2446 17.7401ZM23.0124 19.0576V18.2937H18.1637V19.0576V19.8215H23.0124V19.0576ZM19.2814 12.7078L20.0337 12.8404L20.2658 11.5229L19.5135 11.3903L18.7612 11.2578L18.5291 12.5752L19.2814 12.7078ZM19.5135 11.3903V12.1542H24.3623V11.3903V10.6264H19.5135V11.3903ZM24.3623 11.3903L23.61 11.2578L23.3778 12.5752L24.1301 12.7078L24.8824 12.8404L25.1146 11.5229L24.3623 11.3903ZM24.1301 12.7078V11.9439H19.2814V12.7078V13.4717H24.1301V12.7078ZM26.3385 19.0576L25.5862 18.9252L25.4284 19.8215H26.3385V19.0576ZM27.6884 11.3903V10.6264H27.0472L26.9361 11.2579L27.6884 11.3903ZM29.1246 11.3903L29.877 11.5228L30.0348 10.6264H29.1246V11.3903ZM27.7748 19.0576V19.8215H28.4159L28.5271 19.1901L27.7748 19.0576ZM25.3882 12.7078L24.6359 12.5752L24.4779 13.4717H25.3882V12.7078ZM25.6204 11.3903V10.6264H24.9793L24.8681 11.2578L25.6204 11.3903ZM31.2142 11.3903L31.9665 11.5229L32.1245 10.6264H31.2142V11.3903ZM30.9821 12.7078V13.4717H31.6231L31.7344 12.8404L30.9821 12.7078ZM26.3385 19.0576L27.0908 19.1901L28.4407 11.5228L27.6884 11.3903L26.9361 11.2579L25.5862 18.9252L26.3385 19.0576ZM27.6884 11.3903V12.1542H29.1246V11.3903V10.6264H27.6884V11.3903ZM29.1246 11.3903L28.3723 11.2579L27.0225 18.9252L27.7748 19.0576L28.5271 19.1901L29.877 11.5228L29.1246 11.3903ZM27.7748 19.0576V18.2937H26.3385V19.0576V19.8215H27.7748V19.0576ZM25.3882 12.7078L26.1405 12.8404L26.3727 11.5229L25.6204 11.3903L24.8681 11.2578L24.6359 12.5752L25.3882 12.7078ZM25.6204 11.3903V12.1542H31.2142V11.3903V10.6264H25.6204V11.3903ZM31.2142 11.3903L30.462 11.2578L30.2298 12.5752L30.9821 12.7078L31.7344 12.8404L31.9665 11.5229L31.2142 11.3903ZM30.9821 12.7078V11.9439H25.3882V12.7078V13.4717H30.9821V12.7078ZM30.9767 18.6905L30.2349 18.508L30.0881 19.1048L30.6397 19.376L30.9767 18.6905ZM31.3114 17.3298L31.6069 16.6254L30.7831 16.2798L30.5697 17.1473L31.3114 17.3298ZM34.5943 17.5836L34.9582 18.2553L34.9653 18.2513L34.5943 17.5836ZM34.8751 16.6116L34.2612 17.0664L34.2696 17.0774L34.8751 16.6116ZM34.5133 16.3147L34.1154 16.9667L34.1224 16.9709L34.5133 16.3147ZM32.9475 15.359L32.5464 16.0091L32.5495 16.011L32.9475 15.359ZM32.2348 14.5814L31.533 14.8833L31.536 14.8902L32.2348 14.5814ZM32.7207 11.8925L33.226 12.4654L33.2285 12.4632L32.7207 11.8925ZM37.1321 12.1409L37.7717 12.5586L38.1173 12.0294L37.6622 11.5908L37.1321 12.1409ZM36.3492 13.3395L35.8625 13.9283L36.5213 14.4729L36.9887 13.7573L36.3492 13.3395ZM35.5068 12.832L35.2155 13.5382L35.2262 13.5425L35.5068 12.832ZM33.8114 12.8482L33.3822 12.2163L33.3766 12.2201L33.8114 12.8482ZM34.076 14.2521L33.6675 14.8977L33.6773 14.9036L34.076 14.2521ZM35.523 15.1376L35.1243 15.7892L35.1281 15.7915L35.523 15.1376ZM36.2736 15.8827L35.5886 16.2208L35.5903 16.2243L36.2736 15.8827ZM35.6796 18.5609L35.2187 17.9517L35.2167 17.9532L35.6796 18.5609ZM33.3417 19.1656V18.4017C32.4926 18.4017 31.8267 18.2571 31.3137 18.0049L30.9767 18.6905L30.6397 19.376C31.4153 19.7573 32.3261 19.9295 33.3417 19.9295V19.1656ZM30.9767 18.6905L31.7184 18.8729L32.0532 17.5123L31.3114 17.3298L30.5697 17.1473L30.2349 18.508L30.9767 18.6905ZM31.3114 17.3298L31.0159 18.0342C31.8317 18.3764 32.6431 18.558 33.4442 18.558V17.7941V17.0302C32.8775 17.0302 32.267 16.9023 31.6069 16.6254L31.3114 17.3298ZM33.4442 17.7941V18.558C33.999 18.558 34.5335 18.4853 34.9582 18.2552L34.5943 17.5836L34.2305 16.9119C34.1368 16.9626 33.9045 17.0302 33.4442 17.0302V17.7941ZM34.5943 17.5836L34.9653 18.2513C35.4421 17.9864 35.747 17.5356 35.747 16.9572H34.9831H34.2192C34.2192 16.965 34.2183 16.9622 34.2211 16.952C34.2239 16.9413 34.2292 16.9285 34.2369 16.9161C34.2405 16.9104 34.2439 16.9058 34.2466 16.9025C34.248 16.9009 34.2491 16.8997 34.2499 16.8989C34.2507 16.8981 34.2511 16.8977 34.2511 16.8977C34.251 16.8978 34.2434 16.9046 34.2234 16.9158L34.5943 17.5836ZM34.9831 16.9572H35.747C35.747 16.6798 35.6711 16.3935 35.4806 16.1459L34.8751 16.6116L34.2696 17.0774C34.2495 17.0512 34.2352 17.0225 34.227 16.9961C34.2191 16.9708 34.2192 16.9559 34.2192 16.9572H34.9831ZM34.8751 16.6116L35.4889 16.157C35.3307 15.9433 35.1125 15.7825 34.9043 15.6584L34.5133 16.3147L34.1224 16.9709C34.1822 17.0066 34.2217 17.035 34.246 17.0549C34.271 17.0755 34.2716 17.0802 34.2613 17.0663L34.8751 16.6116ZM34.5133 16.3147L34.9113 15.6626L33.3455 14.7069L32.9475 15.359L32.5495 16.011L34.1154 16.9667L34.5133 16.3147ZM32.9475 15.359L33.3486 14.7089C33.1181 14.5667 32.9975 14.4177 32.9335 14.2727L32.2348 14.5814L31.536 14.8902C31.7456 15.3643 32.1001 15.7337 32.5464 16.0091L32.9475 15.359ZM32.2348 14.5814L32.9365 14.2795C32.8385 14.0519 32.7989 13.852 32.7989 13.6743H32.035H31.2711C31.2711 14.087 31.3646 14.4918 31.5331 14.8833L32.2348 14.5814ZM32.035 13.6743H32.7989C32.7989 13.0416 32.9777 12.6843 33.226 12.4654L32.7207 11.8925L32.2155 11.3196C31.5494 11.907 31.2711 12.7376 31.2711 13.6743H32.035ZM32.7207 11.8925L33.2285 12.4632C33.497 12.2243 33.9498 12.0462 34.7077 12.0462V11.2823V10.5185C33.7306 10.5185 32.8587 10.7472 32.2129 11.3218L32.7207 11.8925ZM34.7077 11.2823V12.0462C35.5822 12.0462 36.1827 12.2868 36.602 12.6909L37.1321 12.1409L37.6622 11.5908C36.8936 10.8502 35.8779 10.5185 34.7077 10.5185V11.2823ZM37.1321 12.1409L36.4925 11.7231L35.7096 12.9218L36.3492 13.3395L36.9887 13.7573L37.7717 12.5586L37.1321 12.1409ZM36.3492 13.3395L36.8359 12.7508C36.5112 12.4824 36.1619 12.2695 35.7875 12.1215L35.5068 12.832L35.2262 13.5425C35.4349 13.6249 35.6472 13.7503 35.8625 13.9283L36.3492 13.3395ZM35.5068 12.832L35.7981 12.1258C35.4254 11.9721 35.0388 11.8899 34.6429 11.8899V12.6538V13.4177C34.823 13.4177 35.0124 13.4543 35.2156 13.5382L35.5068 12.832ZM34.6429 12.6538V11.8899C34.2076 11.8899 33.7533 11.9642 33.3822 12.2163L33.8114 12.8482L34.2406 13.4801C34.251 13.473 34.3511 13.4177 34.6429 13.4177V12.6538ZM33.8114 12.8482L33.3766 12.2201C32.9589 12.5093 32.7667 12.9492 32.7667 13.4205H33.5306H34.2945C34.2945 13.3897 34.2999 13.3979 34.2866 13.4249C34.2804 13.4377 34.2721 13.45 34.2631 13.4603C34.2541 13.4705 34.2474 13.4754 34.2462 13.4763L33.8114 12.8482ZM33.5306 13.4205H32.7667C32.7667 13.7398 32.8619 14.0375 33.0354 14.2978L33.671 13.8741L34.3066 13.4504C34.2979 13.4372 34.2958 13.4305 34.2955 13.4296C34.2952 13.4287 34.295 13.428 34.2949 13.4271C34.2948 13.4262 34.2945 13.4241 34.2945 13.4205H33.5306ZM33.671 13.8741L33.0354 14.2978C33.2007 14.5457 33.4216 14.742 33.6676 14.8976L34.076 14.2521L34.4844 13.6065C34.3776 13.5389 34.3285 13.4833 34.3066 13.4504L33.671 13.8741ZM34.076 14.2521L33.6773 14.9036L35.1243 15.7892L35.523 15.1376L35.9218 14.486L34.4747 13.6005L34.076 14.2521ZM35.523 15.1376L35.1281 15.7915C35.4119 15.9629 35.5363 16.1148 35.5886 16.2208L36.2736 15.8827L36.9586 15.5447C36.7373 15.0963 36.3613 14.7514 35.918 14.4837L35.523 15.1376ZM36.2736 15.8827L35.5903 16.2243C35.671 16.3856 35.7149 16.5664 35.7149 16.779H36.4788H37.2426C37.2426 16.3437 37.1498 15.927 36.9568 15.5411L36.2736 15.8827ZM36.4788 16.779H35.7149C35.7149 17.3717 35.5259 17.7192 35.2187 17.9517L35.6796 18.5609L36.1406 19.17C36.8989 18.5962 37.2426 17.7558 37.2426 16.779H36.4788ZM35.6796 18.5609L35.2167 17.9532C34.8758 18.213 34.29 18.4017 33.3417 18.4017V19.1656V19.9295C34.4523 19.9295 35.4252 19.7151 36.1426 19.1685L35.6796 18.5609ZM47.6449 19.0576L46.8926 18.9252L46.7348 19.8215H47.6449V19.0576ZM48.9948 11.3903V10.6264H48.3536L48.2425 11.2579L48.9948 11.3903ZM50.4311 11.3903L51.1834 11.5228L51.3412 10.6264H50.4311V11.3903ZM49.0812 19.0576V19.8215H49.7223L49.8335 19.1901L49.0812 19.0576ZM43.9301 19.0576L43.1778 18.9252L43.0199 19.8215H43.9301V19.0576ZM45.2799 11.3903V10.6264H44.6388L44.5276 11.2579L45.2799 11.3903ZM46.7162 11.3903L47.4685 11.5228L47.6263 10.6264H46.7162V11.3903ZM45.3663 19.0576V19.8215H46.0075L46.1186 19.1901L45.3663 19.0576ZM44.9128 15.8989L44.1558 15.7965L44.0386 16.6628H44.9128V15.8989ZM45.091 14.5814V13.8175H44.4234L44.334 14.4791L45.091 14.5814ZM49.47 14.5814L50.2269 14.6838L50.3441 13.8175H49.47V14.5814ZM49.2918 15.8989V16.6628H49.9593L50.0488 16.0013L49.2918 15.8989ZM47.6449 19.0576L48.3972 19.1901L49.7471 11.5228L48.9948 11.3903L48.2425 11.2579L46.8926 18.9252L47.6449 19.0576ZM48.9948 11.3903V12.1542H50.4311V11.3903V10.6264H48.9948V11.3903ZM50.4311 11.3903L49.6787 11.2579L48.3289 18.9252L49.0812 19.0576L49.8335 19.1901L51.1834 11.5228L50.4311 11.3903ZM49.0812 19.0576V18.2937H47.6449V19.0576V19.8215H49.0812V19.0576ZM43.9301 19.0576L44.6824 19.1901L46.0323 11.5228L45.2799 11.3903L44.5276 11.2579L43.1778 18.9252L43.9301 19.0576ZM45.2799 11.3903V12.1542H46.7162V11.3903V10.6264H45.2799V11.3903ZM46.7162 11.3903L45.9639 11.2579L44.614 18.9252L45.3663 19.0576L46.1186 19.1901L47.4685 11.5228L46.7162 11.3903ZM45.3663 19.0576V18.2937H43.9301V19.0576V19.8215H45.3663V19.0576ZM44.9128 15.8989L45.6698 16.0013L45.848 14.6838L45.091 14.5814L44.334 14.4791L44.1558 15.7965L44.9128 15.8989ZM45.091 14.5814V15.3453H49.47V14.5814V13.8175H45.091V14.5814ZM49.47 14.5814L48.713 14.4791L48.5348 15.7965L49.2918 15.8989L50.0488 16.0013L50.2269 14.6838L49.47 14.5814ZM49.2918 15.8989V15.135H44.9128V15.8989V16.6628H49.2918V15.8989ZM49.8965 19.0576L49.2035 18.7362L48.7002 19.8215H49.8965V19.0576ZM53.4548 11.3849V10.621H52.967L52.7618 11.0635L53.4548 11.3849ZM55.2312 11.3849L55.9861 11.268L55.8859 10.621H55.2312V11.3849ZM55.8144 15.9907L55.0541 16.0651L55.0542 16.0657L55.8144 15.9907ZM56.0735 19.0576V19.8215H56.8931L56.8355 19.004L56.0735 19.0576ZM54.6157 19.0576L53.8526 19.092L53.8854 19.8215H54.6157V19.0576ZM54.5509 17.8589L53.7885 17.9066L53.7885 17.907L54.5509 17.8589ZM54.4645 16.6548L53.7025 16.7098L53.7031 16.7166L54.4645 16.6548ZM54.3673 15.4562L53.6058 15.5173L53.6065 15.5247L54.3673 15.4562ZM54.2647 14.2521L53.5038 14.32L53.5039 14.3206L54.2647 14.2521ZM54.1513 13.048L54.9115 12.9726L54.8432 12.2841H54.1513V13.048ZM53.9785 13.048V12.2841H53.4786L53.2785 12.7423L53.9785 13.048ZM51.3544 19.0576V19.8215H51.8544L52.0544 19.3633L51.3544 19.0576ZM51.2896 17.6052L50.533 17.4997L50.4119 18.369H51.2896V17.6052ZM51.4732 16.2877V15.5238H50.8083L50.7166 16.1822L51.4732 16.2877ZM55.3608 16.2877L56.1174 16.3931L56.2385 15.5238H55.3608V16.2877ZM55.1772 17.6052V18.369H55.842L55.9338 17.7106L55.1772 17.6052ZM49.8965 19.0576L50.5895 19.379L54.1478 11.7063L53.4548 11.3849L52.7618 11.0635L49.2035 18.7362L49.8965 19.0576ZM53.4548 11.3849V12.1488H55.2312V11.3849V10.621H53.4548V11.3849ZM55.2312 11.3849L54.4763 11.5019C54.5547 12.0078 54.6278 12.5138 54.6955 13.0197L55.4526 12.9184L56.2097 12.8171C56.1406 12.3007 56.0661 11.7843 55.9861 11.268L55.2312 11.3849ZM55.4526 12.9184L54.6955 13.0197C54.7634 13.5274 54.8277 14.035 54.8885 14.5426L55.647 14.4518L56.4054 14.361C56.3438 13.8464 56.2786 13.3317 56.2097 12.8171L55.4526 12.9184ZM55.647 14.4518L54.8885 14.5426C54.949 15.0483 55.0042 15.5558 55.0541 16.0651L55.8144 15.9907L56.5746 15.9163C56.5237 15.3961 56.4673 14.8777 56.4054 14.361L55.647 14.4518ZM55.8144 15.9907L55.0542 16.0657C55.1042 16.5733 55.1507 17.0809 55.1936 17.5885L55.9547 17.5242L56.7159 17.4598C56.6724 16.9451 56.6253 16.4304 56.5746 15.9158L55.8144 15.9907ZM55.9547 17.5242L55.1936 17.5885C55.2365 18.0961 55.2758 18.6037 55.3115 19.1113L56.0735 19.0576L56.8355 19.004C56.7993 18.4892 56.7594 17.9745 56.7159 17.4598L55.9547 17.5242ZM56.0735 19.0576V18.2937H54.6157V19.0576V19.8215H56.0735V19.0576ZM54.6157 19.0576L55.3788 19.0232C55.3606 18.6191 55.3387 18.215 55.3133 17.8109L54.5509 17.8589L53.7885 17.907C53.8134 18.302 53.8348 18.697 53.8526 19.092L54.6157 19.0576ZM54.5509 17.8589L55.3133 17.8113C55.2878 17.4035 55.2587 16.9974 55.2259 16.5931L54.4645 16.6548L53.7031 16.7166C53.7351 17.1114 53.7636 17.5081 53.7885 17.9066L54.5509 17.8589ZM54.4645 16.6548L55.2264 16.5999C55.1973 16.1958 55.1645 15.7917 55.1281 15.3876L54.3673 15.4562L53.6065 15.5247C53.6421 15.9197 53.6741 16.3147 53.7026 16.7098L54.4645 16.6548ZM54.3673 15.4562L55.1287 15.395C55.0961 14.9894 55.0617 14.5856 55.0255 14.1835L54.2647 14.2521L53.5039 14.3206C53.5397 14.7177 53.5737 15.1166 53.6059 15.5173L54.3673 15.4562ZM54.2647 14.2521L55.0256 14.1841C54.9894 13.7785 54.9513 13.3747 54.9115 12.9726L54.1513 13.048L53.3912 13.1233C53.4305 13.5204 53.4681 13.9193 53.5038 14.32L54.2647 14.2521ZM54.1513 13.048V12.2841H53.9785V13.048V13.8119H54.1513V13.048ZM53.9785 13.048L53.2785 12.7423L50.6543 18.7519L51.3544 19.0576L52.0544 19.3633L54.6786 13.3537L53.9785 13.048ZM51.3544 19.0576V18.2937H49.8965V19.0576V19.8215H51.3544V19.0576ZM51.2896 17.6052L52.0462 17.7106L52.2297 16.3931L51.4732 16.2877L50.7166 16.1822L50.533 17.4997L51.2896 17.6052ZM51.4732 16.2877V17.0516H55.3608V16.2877V15.5238H51.4732V16.2877ZM55.3608 16.2877L54.6042 16.1822L54.4206 17.4997L55.1772 17.6052L55.9338 17.7106L56.1174 16.3931L55.3608 16.2877ZM55.1772 17.6052V16.8413H51.2896V17.6052V18.369H55.1772V17.6052ZM58.4871 18.8416L58.1386 19.5215L58.1455 19.5249L58.4871 18.8416ZM57.5206 17.8643L56.8362 18.2037L56.8374 18.2059L57.5206 17.8643ZM57.5152 14.2305L56.7958 13.9735L56.7945 13.9774L57.5152 14.2305ZM58.4277 12.6646L57.8604 12.1531L57.8581 12.1557L58.4277 12.6646ZM59.8316 11.6441L59.5218 10.9459L59.5201 10.9466L59.8316 11.6441ZM63.6004 12.0329L64.2321 12.4624L64.5756 11.9573L64.1583 11.5111L63.6004 12.0329ZM62.7743 13.2478L62.2095 13.7621L62.8615 14.478L63.406 13.6773L62.7743 13.2478ZM60.0476 13.1074L60.4991 13.7236L60.5025 13.721L60.0476 13.1074ZM59.0595 14.3709L59.7554 14.6859L59.7562 14.6841L59.0595 14.3709ZM58.8921 17.0922L58.2191 17.4538L58.2258 17.4657L58.8921 17.0922ZM62.3424 17.481L63.105 17.4372L63.0475 16.4353L62.0971 16.7575L62.3424 17.481ZM62.418 18.7984L62.6523 19.5255L63.2144 19.3443L63.1806 18.7547L62.418 18.7984ZM60.1016 19.1656V18.4017C59.5379 18.4017 59.1253 18.3067 58.8287 18.1584L58.4871 18.8416L58.1455 19.5249C58.7129 19.8086 59.3765 19.9295 60.1016 19.9295V19.1656ZM58.4871 18.8416L58.8356 18.1619C58.5525 18.0167 58.3473 17.8097 58.2038 17.5227L57.5206 17.8643L56.8374 18.2059C57.1258 18.7829 57.565 19.2274 58.1387 19.5214L58.4871 18.8416ZM57.5206 17.8643L58.205 17.525C58.056 17.2245 57.9605 16.8057 57.9605 16.2337H57.1966H56.4327C56.4327 16.9648 56.5533 17.6331 56.8362 18.2037L57.5206 17.8643ZM57.1966 16.2337H57.9605C57.9605 15.5772 58.0558 14.9965 58.2359 14.4836L57.5152 14.2305L56.7945 13.9774C56.5498 14.6739 56.4327 15.4287 56.4327 16.2337H57.1966ZM57.5152 14.2305L58.2346 14.4874C58.4204 13.9671 58.6764 13.5328 58.9974 13.1736L58.4277 12.6646L57.8581 12.1557C57.3943 12.6748 57.042 13.2844 56.7958 13.9735L57.5152 14.2305ZM58.4277 12.6646L58.9951 13.1761C59.3196 12.8161 59.7005 12.5393 60.1431 12.3416L59.8316 11.6441L59.5201 10.9466C58.8828 11.2313 58.3277 11.6348 57.8604 12.1531L58.4277 12.6646ZM59.8316 11.6441L60.1414 12.3423C60.5779 12.1487 61.0703 12.0462 61.6296 12.0462V11.2823V10.5185C60.8787 10.5185 60.1724 10.6572 59.5218 10.9459L59.8316 11.6441ZM61.6296 11.2823V12.0462C62.3173 12.0462 62.7517 12.2437 63.0425 12.5547L63.6004 12.0329L64.1583 11.5111C63.5132 10.8213 62.6338 10.5185 61.6296 10.5185V11.2823ZM63.6004 12.0329L62.9688 11.6033L62.1426 12.8182L62.7743 13.2478L63.406 13.6773L64.2321 12.4624L63.6004 12.0329ZM62.7743 13.2478L63.3391 12.7334C62.8417 12.1873 62.2091 11.8791 61.473 11.8791V12.643V13.4069C61.7377 13.4069 61.9726 13.5019 62.2095 13.7621L62.7743 13.2478ZM61.473 12.643V11.8791C60.7808 11.8791 60.1453 12.084 59.5926 12.4937L60.0476 13.1074L60.5025 13.721C60.785 13.5116 61.0997 13.4069 61.473 13.4069V12.643ZM60.0476 13.1074L59.5961 12.4912C59.0581 12.8854 58.6506 13.4174 58.3628 14.0576L59.0595 14.3709L59.7562 14.6841C59.9507 14.2516 60.2019 13.9413 60.4991 13.7235L60.0476 13.1074ZM59.0595 14.3709L58.3636 14.0558C58.0706 14.7029 57.9338 15.4215 57.9338 16.1959H58.6977H59.4616C59.4616 15.6023 59.566 15.1043 59.7554 14.6859L59.0595 14.3709ZM58.6977 16.1959H57.9338C57.9338 16.6416 58.0146 17.0729 58.2192 17.4538L58.8921 17.0922L59.565 16.7306C59.5104 16.6291 59.4616 16.4629 59.4616 16.1959H58.6977ZM58.8921 17.0922L58.2258 17.4657C58.4436 17.8543 58.7692 18.141 59.1714 18.3228L59.486 17.6268L59.8007 16.9307C59.6773 16.8749 59.607 16.8053 59.5584 16.7187L58.8921 17.0922ZM59.486 17.6268L59.1714 18.3228C59.5611 18.499 60.0018 18.5688 60.4633 18.5688V17.8049V17.041C60.1473 17.041 59.9365 16.9921 59.8007 16.9307L59.486 17.6268ZM60.4633 17.8049V18.5688C61.1697 18.5688 61.8788 18.4447 62.5876 18.2044L62.3424 17.481L62.0971 16.7575C61.5317 16.9492 60.9881 17.041 60.4633 17.041V17.8049ZM62.3424 17.481L61.5797 17.5247L61.6553 18.8422L62.418 18.7984L63.1806 18.7547L63.105 17.4372L62.3424 17.481ZM62.418 18.7984L62.1836 18.0714C61.4985 18.2922 60.8054 18.4017 60.1016 18.4017V19.1656V19.9295C60.9672 19.9295 61.8183 19.7943 62.6523 19.5255L62.418 18.7984ZM64.3564 17.265L63.5935 17.2265L63.5479 18.1303L64.4465 18.0235L64.3564 17.265ZM64.4266 15.8719L64.3207 15.1154L63.6954 15.2029L63.6636 15.8335L64.4266 15.8719ZM66.6134 15.0566L66.1679 14.436L66.1661 14.4373L66.6134 15.0566ZM68.001 13.4799L67.3288 13.1171L67.3281 13.1185L68.001 13.4799ZM68.7138 11.3903V10.6264H68.0722L67.9614 11.2584L68.7138 11.3903ZM70.1608 11.3903L70.9136 11.5202L71.0678 10.6264H70.1608V11.3903ZM69.1457 14.1873L68.489 13.7971L68.4885 13.798L69.1457 14.1873ZM67.1965 16.2607L67.6229 16.8945L67.6248 16.8932L67.1965 16.2607ZM63.4223 19.0576L62.6699 18.9252L62.5121 19.8215H63.4223V19.0576ZM64.7721 11.3903V10.6264H64.131L64.0198 11.2579L64.7721 11.3903ZM66.2084 11.3903L66.9607 11.5228L67.1185 10.6264H66.2084V11.3903ZM64.8585 19.0576V19.8215H65.4997L65.6108 19.1901L64.8585 19.0576ZM67.4395 19.0576L66.7089 19.2808L66.8741 19.8215H67.4395V19.0576ZM66.4136 15.6991L66.1279 14.9907L65.4784 15.2525L65.683 15.9223L66.4136 15.6991ZM67.7797 15.1484L68.505 14.9089L68.2496 14.1353L67.494 14.4399L67.7797 15.1484ZM69.0701 19.0576V19.8215H70.1267L69.7955 18.8182L69.0701 19.0576ZM64.3564 17.265L65.1193 17.3034L65.1895 15.9104L64.4266 15.8719L63.6636 15.8335L63.5935 17.2265L64.3564 17.265ZM64.4266 15.8719L64.5324 16.6284C65.5027 16.4927 66.3561 16.1847 67.0606 15.6759L66.6134 15.0566L66.1661 14.4373C65.7044 14.7708 65.0999 15.0064 64.3207 15.1154L64.4266 15.8719ZM66.6134 15.0566L67.0588 15.6772C67.7392 15.1888 68.2799 14.575 68.674 13.8414L68.001 13.4799L67.3281 13.1185C67.0454 13.6448 66.6611 14.082 66.1679 14.436L66.6134 15.0566ZM68.001 13.4799L68.6732 13.8428C69.0568 13.1321 69.3198 12.3568 69.4662 11.5223L68.7138 11.3903L67.9614 11.2584C67.8413 11.9429 67.6292 12.5607 67.3288 13.1171L68.001 13.4799ZM68.7138 11.3903V12.1542H70.1608V11.3903V10.6264H68.7138V11.3903ZM70.1608 11.3903L69.4081 11.2605C69.2466 12.1963 68.939 13.0396 68.489 13.7971L69.1457 14.1873L69.8025 14.5774C70.3532 13.6503 70.7223 12.6289 70.9136 11.5202L70.1608 11.3903ZM69.1457 14.1873L68.4885 13.798C68.0488 14.5403 67.4771 15.1482 66.7682 15.6282L67.1965 16.2607L67.6248 16.8932C68.5214 16.2861 69.2491 15.5117 69.803 14.5765L69.1457 14.1873ZM67.1965 16.2607L66.7702 15.6268C66.0809 16.0905 65.253 16.3892 64.2662 16.5064L64.3564 17.265L64.4465 18.0235C65.6411 17.8816 66.7067 17.5108 67.6229 16.8945L67.1965 16.2607ZM63.4223 19.0576L64.1746 19.1901L65.5244 11.5228L64.7721 11.3903L64.0198 11.2579L62.6699 18.9252L63.4223 19.0576ZM64.7721 11.3903V12.1542H66.2084V11.3903V10.6264H64.7721V11.3903ZM66.2084 11.3903L65.4561 11.2579L64.1062 18.9252L64.8585 19.0576L65.6108 19.1901L66.9607 11.5228L66.2084 11.3903ZM64.8585 19.0576V18.2937H63.4223V19.0576V19.8215H64.8585V19.0576ZM67.4395 19.0576L68.17 18.8345L67.1441 15.476L66.4136 15.6991L65.683 15.9223L66.7089 19.2808L67.4395 19.0576ZM66.4136 15.6991L66.6992 16.4076L68.0653 15.8569L67.7797 15.1484L67.494 14.4399L66.1279 14.9907L66.4136 15.6991ZM67.7797 15.1484L67.0543 15.3878L68.3447 19.2971L69.0701 19.0576L69.7955 18.8182L68.505 14.9089L67.7797 15.1484ZM69.0701 19.0576V18.2937H67.4395V19.0576V19.8215H69.0701V19.0576ZM69.8531 18.6905L69.1113 18.508L68.9644 19.1048L69.516 19.376L69.8531 18.6905ZM70.1878 17.3298L70.4833 16.6254L69.6595 16.2798L69.4461 17.1473L70.1878 17.3298ZM73.4707 17.5836L73.8346 18.2553L73.8417 18.2513L73.4707 17.5836ZM73.7515 16.6116L73.1376 17.0664L73.146 17.0774L73.7515 16.6116ZM73.3897 16.3147L72.9917 16.9667L72.9988 16.9709L73.3897 16.3147ZM71.8239 15.359L71.4227 16.0091L71.4259 16.011L71.8239 15.359ZM71.1111 14.5814L70.4094 14.8833L70.4124 14.8902L71.1111 14.5814ZM71.5971 11.8925L72.1024 12.4654L72.1049 12.4632L71.5971 11.8925ZM76.0085 12.1409L76.648 12.5586L76.9937 12.0294L76.5385 11.5908L76.0085 12.1409ZM75.2256 13.3395L74.7388 13.9283L75.3977 14.4729L75.8651 13.7573L75.2256 13.3395ZM74.3832 12.832L74.0919 13.5382L74.1026 13.5425L74.3832 12.832ZM72.6878 12.8482L72.2586 12.2163L72.253 12.2201L72.6878 12.8482ZM72.9524 14.2521L72.5439 14.8977L72.5536 14.9036L72.9524 14.2521ZM74.3994 15.1376L74.0007 15.7892L74.0045 15.7915L74.3994 15.1376ZM75.15 15.8827L74.4649 16.2208L74.4667 16.2243L75.15 15.8827ZM74.556 18.5609L74.0951 17.9517L74.0931 17.9532L74.556 18.5609ZM72.218 19.1656V18.4017C71.369 18.4017 70.7031 18.2571 70.1901 18.0049L69.8531 18.6905L69.516 19.376C70.2917 19.7573 71.2025 19.9295 72.218 19.9295V19.1656ZM69.8531 18.6905L70.5948 18.8729L70.9296 17.5123L70.1878 17.3298L69.4461 17.1473L69.1113 18.508L69.8531 18.6905ZM70.1878 17.3298L69.8923 18.0342C70.7081 18.3764 71.5195 18.558 72.3206 18.558V17.7941V17.0302C71.7539 17.0302 71.1434 16.9023 70.4833 16.6254L70.1878 17.3298ZM72.3206 17.7941V18.558C72.8754 18.558 73.4099 18.4853 73.8345 18.2552L73.4707 17.5836L73.1069 16.9119C73.0132 16.9626 72.7809 17.0302 72.3206 17.0302V17.7941ZM73.4707 17.5836L73.8417 18.2513C74.3185 17.9864 74.6234 17.5356 74.6234 16.9572H73.8595H73.0956C73.0956 16.965 73.0947 16.9622 73.0975 16.952C73.1003 16.9413 73.1056 16.9285 73.1133 16.9161C73.1168 16.9104 73.1203 16.9058 73.123 16.9025C73.1244 16.9009 73.1255 16.8997 73.1263 16.8989C73.1271 16.8981 73.1275 16.8977 73.1275 16.8977C73.1274 16.8978 73.1198 16.9046 73.0997 16.9158L73.4707 17.5836ZM73.8595 16.9572H74.6234C74.6234 16.6798 74.5475 16.3935 74.357 16.1459L73.7515 16.6116L73.146 17.0774C73.1259 17.0512 73.1116 17.0225 73.1034 16.9961C73.0955 16.9708 73.0956 16.9559 73.0956 16.9572H73.8595ZM73.7515 16.6116L74.3653 16.157C74.207 15.9433 73.9889 15.7825 73.7807 15.6584L73.3897 16.3147L72.9988 16.9709C73.0586 17.0066 73.0981 17.035 73.1224 17.0549C73.1474 17.0755 73.1479 17.0802 73.1377 17.0663L73.7515 16.6116ZM73.3897 16.3147L73.7877 15.6626L72.2218 14.7069L71.8239 15.359L71.4259 16.011L72.9918 16.9667L73.3897 16.3147ZM71.8239 15.359L72.225 14.7089C71.9945 14.5667 71.8739 14.4177 71.8099 14.2727L71.1111 14.5814L70.4124 14.8902C70.6219 15.3643 70.9765 15.7337 71.4228 16.0091L71.8239 15.359ZM71.1111 14.5814L71.8128 14.2795C71.7149 14.0519 71.6752 13.852 71.6752 13.6743H70.9114H70.1475C70.1475 14.087 70.241 14.4918 70.4094 14.8833L71.1111 14.5814ZM70.9114 13.6743H71.6752C71.6752 13.0416 71.8541 12.6843 72.1023 12.4654L71.5971 11.8925L71.0918 11.3196C70.4258 11.907 70.1475 12.7376 70.1475 13.6743H70.9114ZM71.5971 11.8925L72.1049 12.4632C72.3734 12.2243 72.8262 12.0462 73.5841 12.0462V11.2823V10.5185C72.607 10.5185 71.7351 10.7472 71.0893 11.3218L71.5971 11.8925ZM73.5841 11.2823V12.0462C74.4586 12.0462 75.0591 12.2868 75.4784 12.6909L76.0085 12.1409L76.5385 11.5908C75.77 10.8502 74.7543 10.5185 73.5841 10.5185V11.2823ZM76.0085 12.1409L75.3689 11.7231L74.586 12.9218L75.2256 13.3395L75.8651 13.7573L76.648 12.5586L76.0085 12.1409ZM75.2256 13.3395L75.7123 12.7508C75.3876 12.4824 75.0383 12.2695 74.6639 12.1215L74.3832 12.832L74.1026 13.5425C74.3113 13.6249 74.5236 13.7503 74.7388 13.9283L75.2256 13.3395ZM74.3832 12.832L74.6745 12.1258C74.3018 11.9721 73.9151 11.8899 73.5193 11.8899V12.6538V13.4177C73.6994 13.4177 73.8887 13.4543 74.0919 13.5382L74.3832 12.832ZM73.5193 12.6538V11.8899C73.084 11.8899 72.6297 11.9642 72.2586 12.2163L72.6878 12.8482L73.117 13.4801C73.1274 13.473 73.2275 13.4177 73.5193 13.4177V12.6538ZM72.6878 12.8482L72.253 12.2201C71.8352 12.5093 71.6431 12.9492 71.6431 13.4205H72.407H73.1709C73.1709 13.3897 73.1763 13.3979 73.163 13.4249C73.1568 13.4377 73.1485 13.45 73.1394 13.4603C73.1305 13.4705 73.1238 13.4754 73.1226 13.4763L72.6878 12.8482ZM72.407 13.4205H71.6431C71.6431 13.7398 71.7382 14.0375 71.9118 14.2978L72.5474 13.8741L73.183 13.4504C73.1742 13.4372 73.1721 13.4305 73.1718 13.4296C73.1716 13.4287 73.1714 13.428 73.1713 13.4271C73.1712 13.4262 73.1709 13.4241 73.1709 13.4205H72.407ZM72.5474 13.8741L71.9118 14.2978C72.0771 14.5457 72.298 14.742 72.544 14.8976L72.9524 14.2521L73.3608 13.6065C73.254 13.5389 73.2049 13.4833 73.183 13.4504L72.5474 13.8741ZM72.9524 14.2521L72.5536 14.9036L74.0007 15.7892L74.3994 15.1376L74.7982 14.486L73.3511 13.6005L72.9524 14.2521ZM74.3994 15.1376L74.0045 15.7915C74.2883 15.9629 74.4126 16.1148 74.465 16.2208L75.15 15.8827L75.835 15.5447C75.6137 15.0963 75.2377 14.7514 74.7944 14.4837L74.3994 15.1376ZM75.15 15.8827L74.4667 16.2243C74.5473 16.3856 74.5913 16.5664 74.5913 16.779H75.3551H76.119C76.119 16.3437 76.0262 15.927 75.8332 15.5411L75.15 15.8827ZM75.3551 16.779H74.5913C74.5913 17.3717 74.4023 17.7192 74.0951 17.9517L74.556 18.5609L75.017 19.17C75.7753 18.5962 76.119 17.7558 76.119 16.779H75.3551ZM74.556 18.5609L74.0931 17.9532C73.7522 18.213 73.1664 18.4017 72.218 18.4017V19.1656V19.9295C73.3287 19.9295 74.3015 19.7151 75.019 19.1685L74.556 18.5609ZM84.1131 18.9442L83.8096 19.6453L83.8183 19.6489L84.1131 18.9442ZM83.2924 18.3125L82.6725 18.7588L82.6764 18.7642L83.2924 18.3125ZM83.3842 16.0663L82.7561 15.6315L82.7553 15.6328L83.3842 16.0663ZM87.828 15.3536L87.3787 15.9713L87.3811 15.9731L87.828 15.3536ZM88.0926 17.9507L88.7217 18.384L88.7236 18.3812L88.0926 17.9507ZM86.9911 18.847L87.3068 19.5426L87.3092 19.5415L86.9911 18.847ZM86.3431 17.6537L86.6848 18.337L86.6895 18.3346L86.3431 17.6537ZM86.6887 15.9367L86.1986 16.5227L86.205 16.5279L86.6887 15.9367ZM85.166 15.8449L85.4981 16.5329L85.503 16.5305L85.166 15.8449ZM84.6747 16.2715L84.0333 15.8565L84.0313 15.8597L84.6747 16.2715ZM84.8151 17.562L84.3404 18.1605L84.3468 18.1655L84.8151 17.562ZM84.9231 15.2456L84.1708 15.1128L84.0126 16.0095H84.9231V15.2456ZM85.0202 14.6948V13.9309H84.3794L84.268 14.5621L85.0202 14.6948ZM87.2556 14.6948L88.0079 14.8276L88.1661 13.9309H87.2556V14.6948ZM87.1585 15.2456V16.0095H87.7993L87.9107 15.3783L87.1585 15.2456ZM87.0991 14.0685L86.6267 13.4681L86.6219 13.472L87.0991 14.0685ZM87.1531 12.8482L86.6908 13.4564L86.6976 13.4615L86.7045 13.4665L87.1531 12.8482ZM85.6412 12.913L86.1493 13.4834L86.15 13.4828L85.6412 12.913ZM84.4749 14.6516L84.0283 15.2713L84.0309 15.2732L84.4749 14.6516ZM85.2308 11.5631L84.9271 10.8622L84.925 10.8631L85.2308 11.5631ZM88.3247 11.7359L87.8664 12.347L88.3247 11.7359ZM88.5677 14.0685L87.955 13.6123L87.9541 13.6135L88.5677 14.0685ZM87.5688 14.819L87.8597 15.5254L87.8647 15.5233L87.5688 14.819ZM85.3442 19.1656V18.4017C84.9555 18.4017 84.649 18.3404 84.408 18.2395L84.1131 18.9442L83.8183 19.6489C84.2828 19.8433 84.7971 19.9295 85.3442 19.9295V19.1656ZM84.1131 18.9442L84.4167 18.2432C84.1746 18.1384 84.0157 18.0071 83.9084 17.8608L83.2924 18.3125L82.6764 18.7642C82.965 19.1578 83.3533 19.4477 83.8096 19.6452L84.1131 18.9442ZM83.2924 18.3125L83.9123 17.8661C83.8184 17.7356 83.7647 17.5812 83.7647 17.373H83.0008H82.237C82.237 17.8775 82.3777 18.3494 82.6725 18.7588L83.2924 18.3125ZM83.0008 17.373H83.7647C83.7647 17.0095 83.8551 16.7291 84.0131 16.4998L83.3842 16.0663L82.7553 15.6328C82.4021 16.145 82.237 16.7357 82.237 17.373H83.0008ZM83.3842 16.0663L84.0123 16.5011C84.1832 16.2542 84.4298 16.047 84.7827 15.8883L84.4695 15.1916L84.1563 14.4949C83.5805 14.7538 83.1035 15.1297 82.7561 15.6315L83.3842 16.0663ZM84.4695 15.1916L84.7827 15.8883C85.1297 15.7323 85.5608 15.6423 86.0947 15.6423V14.8784V14.1145C85.3905 14.1145 84.738 14.2333 84.1563 14.4949L84.4695 15.1916ZM86.0947 14.8784V15.6423C86.707 15.6423 87.1113 15.7769 87.3787 15.9713L87.828 15.3536L88.2773 14.7358C87.6735 14.2967 86.9224 14.1145 86.0947 14.1145V14.8784ZM87.828 15.3536L87.3811 15.9731C87.6317 16.1538 87.7228 16.346 87.7228 16.6062H88.4867H89.2506C89.2506 15.8298 88.9026 15.1868 88.2749 14.734L87.828 15.3536ZM88.4867 16.6062H87.7228C87.7228 16.9793 87.6294 17.2741 87.4615 17.5202L88.0926 17.9507L88.7236 18.3812C89.0812 17.857 89.2506 17.2555 89.2506 16.6062H88.4867ZM88.0926 17.9507L87.4634 17.5175C87.2879 17.7723 87.0345 17.9869 86.673 18.1525L86.9911 18.847L87.3092 19.5415C87.8907 19.2752 88.3717 18.8923 88.7217 18.384L88.0926 17.9507ZM86.9911 18.847L86.6754 18.1514C86.3263 18.3098 85.8893 18.4017 85.3442 18.4017V19.1656V19.9295C86.059 19.9295 86.7199 19.809 87.3068 19.5426L86.9911 18.847ZM85.6358 17.8049V18.5688C86.0011 18.5688 86.3581 18.5003 86.6847 18.337L86.3431 17.6537L86.0015 16.9705C85.925 17.0088 85.8104 17.041 85.6358 17.041V17.8049ZM86.3431 17.6537L86.6895 18.3346C87.0118 18.1706 87.2804 17.9322 87.471 17.6186L86.8183 17.2218L86.1655 16.825C86.133 16.8785 86.0848 16.9281 85.9967 16.9729L86.3431 17.6537ZM86.8183 17.2218L87.471 17.6186C87.665 17.2994 87.7496 16.944 87.7496 16.5792H86.9857H86.2218C86.2218 16.704 86.1947 16.777 86.1655 16.825L86.8183 17.2218ZM86.9857 16.5792H87.7496C87.7496 16.0947 87.556 15.6593 87.1724 15.3455L86.6887 15.9367L86.205 16.5279C86.2146 16.5358 86.2184 16.5405 86.2191 16.5413C86.2196 16.542 86.2188 16.5411 86.218 16.5393C86.2172 16.5376 86.2179 16.5384 86.2189 16.5434C86.22 16.5486 86.2218 16.56 86.2218 16.5792H86.9857ZM86.6887 15.9367L87.1788 15.3507C86.8097 15.0421 86.3577 14.9244 85.9004 14.9244V15.6883V16.4522C86.0982 16.4522 86.1717 16.5002 86.1986 16.5227L86.6887 15.9367ZM85.9004 15.6883V14.9244C85.5263 14.9244 85.1628 14.9953 84.8291 15.1594L85.166 15.8449L85.503 16.5305C85.594 16.4857 85.7201 16.4522 85.9004 16.4522V15.6883ZM85.166 15.8449L84.8339 15.157C84.5069 15.3149 84.2329 15.5481 84.0333 15.8565L84.6747 16.2715L85.316 16.6865C85.3541 16.6277 85.4076 16.5765 85.4981 16.5328L85.166 15.8449ZM84.6747 16.2715L84.0313 15.8597C83.8265 16.1797 83.738 16.5397 83.738 16.9086H84.5019H85.2658C85.2658 16.788 85.2925 16.7232 85.3181 16.6833L84.6747 16.2715ZM84.5019 16.9086H83.738C83.738 17.4082 83.9461 17.8478 84.3404 18.1605L84.8151 17.562L85.2897 16.9635C85.2773 16.9536 85.2715 16.947 85.2696 16.9447C85.2679 16.9426 85.2683 16.9426 85.269 16.9442C85.2698 16.9458 85.2693 16.9455 85.2684 16.9414C85.2675 16.9371 85.2658 16.9268 85.2658 16.9086H84.5019ZM84.8151 17.562L84.3468 18.1655C84.7231 18.4575 85.176 18.5688 85.6358 18.5688V17.8049V17.041C85.4189 17.041 85.3246 16.9904 85.2833 16.9584L84.8151 17.562ZM84.9231 15.2456L85.6753 15.3783L85.7725 14.8276L85.0202 14.6948L84.268 14.5621L84.1708 15.1128L84.9231 15.2456ZM85.0202 14.6948V15.4587H87.2556V14.6948V13.9309H85.0202V14.6948ZM87.2556 14.6948L86.5034 14.5621L86.4062 15.1128L87.1585 15.2456L87.9107 15.3783L88.0079 14.8276L87.2556 14.6948ZM87.1585 15.2456V14.4817H84.9231V15.2456V16.0095H87.1585V15.2456ZM86.2459 14.3277V15.0915C86.7236 15.0915 87.1912 14.973 87.5763 14.665L87.0991 14.0685L86.6219 13.472C86.5749 13.5095 86.4738 13.5638 86.2459 13.5638V14.3277ZM87.0991 14.0685L87.5714 14.6688C87.9789 14.3482 88.1923 13.8965 88.1923 13.3827H87.4284H86.6645C86.6645 13.4046 86.6624 13.4183 86.6609 13.4257C86.6594 13.4328 86.6579 13.4359 86.6575 13.4367C86.6571 13.4376 86.656 13.4397 86.6526 13.4438C86.6491 13.4482 86.6414 13.4566 86.6267 13.4682L87.0991 14.0685ZM87.4284 13.3827H88.1923C88.1923 12.9102 87.9795 12.504 87.6016 12.2299L87.1531 12.8482L86.7045 13.4665C86.7123 13.4722 86.6962 13.462 86.6805 13.4315C86.6734 13.4177 86.669 13.4046 86.6666 13.3941C86.6642 13.3839 86.6645 13.3795 86.6645 13.3827H87.4284ZM87.1531 12.8482L87.6153 12.24C87.2652 11.974 86.8471 11.8791 86.4349 11.8791V12.643V13.4069C86.6203 13.4069 86.6809 13.4488 86.6908 13.4564L87.1531 12.8482ZM86.4349 12.643V11.8791C85.9614 11.8791 85.5023 12.0129 85.1324 12.3432L85.6412 12.913L86.15 13.4828C86.1832 13.4531 86.2533 13.4069 86.4349 13.4069V12.643ZM85.6412 12.913L85.133 12.3426C84.7573 12.6774 84.5803 13.1247 84.5803 13.6095H85.3442H86.1081C86.1081 13.5541 86.1173 13.5279 86.1211 13.519C86.1243 13.5116 86.13 13.5006 86.1493 13.4834L85.6412 12.913ZM85.3442 13.6095H84.5803C84.5803 14.0534 84.7681 14.445 85.1138 14.7231L85.5926 14.1279L86.0714 13.5326C86.0687 13.5305 86.0715 13.5324 86.077 13.5391C86.0826 13.5461 86.0893 13.5559 86.0952 13.5683C86.1011 13.5807 86.1047 13.5921 86.1066 13.6009C86.1084 13.6094 86.1081 13.6128 86.1081 13.6095H85.3442ZM85.5926 14.1279L85.1138 14.7231C85.4483 14.9921 85.8498 15.0915 86.2459 15.0915V14.3277V13.5638C86.173 13.5638 86.128 13.5547 86.1035 13.5472C86.0808 13.5403 86.0731 13.5341 86.0714 13.5326L85.5926 14.1279ZM86.0624 15.0836V14.3197C85.5156 14.3197 85.1565 14.1998 84.9189 14.03L84.4749 14.6516L84.0309 15.2732C84.5996 15.6794 85.2988 15.8475 86.0624 15.8475V15.0836ZM84.4749 14.6516L84.9215 14.0319C84.7089 13.8786 84.6394 13.7253 84.6394 13.5177H83.8756H83.1117C83.1117 14.246 83.4418 14.8487 84.0283 15.2713L84.4749 14.6516ZM83.8756 13.5177H84.6394C84.6394 13.2152 84.7171 12.9823 84.8549 12.7881L84.2319 12.346L83.609 11.9039C83.2716 12.3793 83.1117 12.9275 83.1117 13.5177H83.8756ZM84.2319 12.346L84.8549 12.7881C85.0015 12.5816 85.2175 12.4026 85.5367 12.2631L85.2308 11.5631L84.925 10.8631C84.3875 11.098 83.9375 11.441 83.609 11.9039L84.2319 12.346ZM85.2308 11.5631L85.5346 12.264C85.8529 12.1261 86.2463 12.0462 86.7319 12.0462V11.2823V10.5185C86.0799 10.5185 85.4727 10.6258 84.9271 10.8622L85.2308 11.5631ZM86.7319 11.2823V12.0462C87.2761 12.0462 87.631 12.1705 87.8664 12.347L88.3247 11.7359L88.7831 11.1248C88.2121 10.6966 87.5051 10.5185 86.7319 10.5185V11.2823ZM88.3247 11.7359L87.8664 12.347C88.0805 12.5076 88.1656 12.6824 88.1656 12.9346H88.9295H89.6934C89.6934 12.1933 89.3753 11.569 88.7831 11.1248L88.3247 11.7359ZM88.9295 12.9346H88.1656C88.1656 13.2143 88.091 13.4296 87.955 13.6123L88.5677 14.0685L89.1805 14.5246C89.5268 14.0594 89.6934 13.5188 89.6934 12.9346H88.9295ZM88.5677 14.0685L87.9541 13.6135C87.8108 13.8067 87.596 13.979 87.2729 14.1148L87.5688 14.819L87.8647 15.5233C88.3983 15.2991 88.8495 14.971 89.1813 14.5235L88.5677 14.0685ZM87.5688 14.819L87.278 14.1127C86.9613 14.243 86.562 14.3197 86.0624 14.3197V15.0836V15.8475C86.7146 15.8475 87.3196 15.7478 87.8597 15.5254L87.5688 14.819ZM91.3161 18.8794L90.7709 19.4145L90.7759 19.4196L91.3161 18.8794ZM91.3161 17.4864L90.7759 16.9462L91.3161 17.4864ZM92.7091 18.8794L93.2493 19.4196L93.2543 19.4145L92.7091 18.8794ZM92.0126 19.1656V18.4017C91.9384 18.4017 91.9015 18.3846 91.8562 18.3393L91.3161 18.8794L90.7759 19.4196C91.1122 19.7559 91.5396 19.9295 92.0126 19.9295V19.1656ZM91.3161 18.8794L91.8612 18.3444C91.8092 18.2914 91.7938 18.2508 91.7938 18.1829H91.0299H90.266C90.266 18.655 90.4413 19.0787 90.7709 19.4145L91.3161 18.8794ZM91.0299 18.1829H91.7938C91.7938 18.1087 91.8109 18.0718 91.8562 18.0265L91.3161 17.4864L90.7759 16.9462C90.4396 17.2825 90.266 17.7099 90.266 18.1829H91.0299ZM91.3161 17.4864L91.8562 18.0265C91.9015 17.9812 91.9384 17.9641 92.0126 17.9641V17.2002V16.4363C91.5396 16.4363 91.1122 16.6099 90.7759 16.9462L91.3161 17.4864ZM92.0126 17.2002V17.9641C92.0868 17.9641 92.1237 17.9812 92.169 18.0265L92.7091 17.4864L93.2493 16.9462C92.913 16.6099 92.4856 16.4363 92.0126 16.4363V17.2002ZM92.7091 17.4864L92.169 18.0265C92.2143 18.0718 92.2314 18.1087 92.2314 18.1829H92.9953H93.7592C93.7592 17.7099 93.5855 17.2825 93.2493 16.9462L92.7091 17.4864ZM92.9953 18.1829H92.2314C92.2314 18.2508 92.2159 18.2914 92.164 18.3444L92.7091 18.8794L93.2543 19.4145C93.5839 19.0787 93.7592 18.655 93.7592 18.1829H92.9953ZM92.7091 18.8794L92.169 18.3393C92.1237 18.3846 92.0868 18.4017 92.0126 18.4017V19.1656V19.9295C92.4856 19.9295 92.913 19.7559 93.2493 19.4196L92.7091 18.8794ZM96.6886 18.4475L96.0829 18.913L96.0868 18.918L96.6886 18.4475ZM97.7415 11.8547L98.1835 12.4777L98.1863 12.4757L97.7415 11.8547ZM101.348 11.9897L100.746 12.459L100.75 12.4641L101.348 11.9897ZM101.5 16.8762L102.219 17.1331L102.219 17.1321L101.5 16.8762ZM100.301 18.5879L99.8513 17.9703L100.301 18.5879ZM98.4488 16.0447L97.8009 16.4496L97.8083 16.461L98.4488 16.0447ZM98.546 14.5922L99.1519 15.0575L99.1558 15.0523L98.546 14.5922ZM99.5773 14.4896L98.939 14.9096L98.9469 14.921L99.5773 14.4896ZM99.4855 15.9475L100.099 16.4025L100.103 16.3974L99.4855 15.9475ZM99.5773 17.3892L99.0336 16.8526L99.0301 16.8562L99.5773 17.3892ZM100.193 16.1527L99.4529 15.9628L99.4518 15.9674L100.193 16.1527ZM100.166 13.021L99.5149 13.4209L99.5218 13.4317L100.166 13.021ZM98.4596 13.0588L98.9998 13.5989L99.0033 13.5954L98.4596 13.0588ZM97.8387 14.2845L97.099 14.0934L97.0982 14.0969L97.8387 14.2845ZM98.3354 19.1656V18.4017C97.7968 18.4017 97.4916 18.2344 97.2903 17.9769L96.6886 18.4475L96.0868 18.918C96.6342 19.6181 97.4269 19.9295 98.3354 19.9295V19.1656ZM96.6886 18.4475L97.2942 17.9819C97.0679 17.6875 96.8963 17.1741 96.8963 16.3255H96.1324H95.3685C95.3685 17.3414 95.5677 18.2427 96.0829 18.913L96.6886 18.4475ZM96.1324 16.3255H96.8963C96.8963 15.2769 97.0251 14.4441 97.256 13.8038L96.5374 13.5447L95.8188 13.2856C95.5097 14.1428 95.3685 15.1638 95.3685 16.3255H96.1324ZM96.5374 13.5447L97.256 13.8038C97.4848 13.1693 97.8034 12.7473 98.1835 12.4777L97.7415 11.8547L97.2995 11.2317C96.614 11.718 96.1299 12.4227 95.8188 13.2856L96.5374 13.5447ZM97.7415 11.8547L98.1863 12.4757C98.5653 12.2042 99.0602 12.0462 99.7177 12.0462V11.2823V10.5185C98.8057 10.5185 97.9831 10.742 97.2967 11.2337L97.7415 11.8547ZM99.7177 11.2823V12.0462C100.256 12.0462 100.553 12.212 100.746 12.459L101.348 11.9897L101.951 11.5204C101.409 10.8243 100.619 10.5185 99.7177 10.5185V11.2823ZM101.348 11.9897L100.75 12.4641C100.97 12.7419 101.141 13.2341 101.141 14.0631H101.904H102.668C102.668 13.0634 102.468 12.1734 101.947 11.5153L101.348 11.9897ZM101.904 14.0631H101.141C101.141 15.1228 101.012 15.9679 100.78 16.6204L101.5 16.8762L102.219 17.1321C102.527 16.2655 102.668 15.2351 102.668 14.0631H101.904ZM101.5 16.8762L100.78 16.6193C100.55 17.2637 100.231 17.6941 99.8513 17.9703L100.301 18.5879L100.75 19.2055C101.429 18.7113 101.909 18.0006 102.219 17.1331L101.5 16.8762ZM100.301 18.5879L99.8513 17.9703C99.4765 18.2431 98.9871 18.4017 98.3354 18.4017V19.1656V19.9295C99.246 19.9295 100.067 19.703 100.75 19.2055L100.301 18.5879ZM98.8376 16.2607V15.4968C98.8691 15.4968 98.9257 15.5048 98.9872 15.5389C99.0475 15.5724 99.0789 15.6125 99.0893 15.6284L98.4488 16.0447L97.8083 16.461C98.0365 16.8121 98.4021 17.0246 98.8376 17.0246V16.2607ZM98.4488 16.0447L99.0966 15.6398C99.1061 15.6551 99.1007 15.6531 99.0931 15.6191C99.0854 15.5847 99.0777 15.5271 99.0777 15.44H98.3138H97.5499C97.5499 15.7725 97.6051 16.1361 97.801 16.4496L98.4488 16.0447ZM98.3138 15.44H99.0777C99.0777 15.1743 99.1354 15.0789 99.1519 15.0575L98.546 14.5922L97.9401 14.127C97.647 14.5087 97.5499 14.9785 97.5499 15.44H98.3138ZM98.546 14.5922L99.1558 15.0523C99.1618 15.0444 99.1643 15.0427 99.1625 15.0442C99.1606 15.0458 99.157 15.0483 99.1527 15.0503C99.1486 15.0523 99.1475 15.0521 99.1517 15.0512C99.1562 15.0503 99.1679 15.0483 99.1885 15.0483V14.2845V13.5206C98.6932 13.5206 98.2458 13.7218 97.9362 14.1322L98.546 14.5922ZM99.1885 14.2845V15.0483C99.1682 15.0483 99.1171 15.0435 99.0561 15.0113C98.994 14.9786 98.9565 14.9358 98.9391 14.9095L99.5773 14.4896L100.215 14.0698C99.9786 13.7098 99.6045 13.5206 99.1885 13.5206V14.2845ZM99.5773 14.4896L98.9469 14.921C98.9332 14.901 98.9352 14.8949 98.9407 14.9173C98.9464 14.9407 98.9538 14.9866 98.9538 15.062H99.7177H100.482C100.482 14.7327 100.421 14.3694 100.208 14.0583L99.5773 14.4896ZM99.7177 15.062H98.9538C98.9538 15.3465 98.8942 15.4619 98.8682 15.4976L99.4855 15.9475L100.103 16.3974C100.386 16.0083 100.482 15.5334 100.482 15.062H99.7177ZM99.4855 15.9475L98.8719 15.4926C98.8658 15.5007 98.8632 15.5025 98.865 15.5009C98.867 15.4993 98.8707 15.4967 98.875 15.4946C98.8792 15.4926 98.8802 15.4928 98.8758 15.4938C98.871 15.4948 98.8589 15.4968 98.8376 15.4968V16.2607V17.0246C99.3379 17.0246 99.7895 16.8202 100.099 16.4024L99.4855 15.9475ZM98.5676 17.8049V18.5688C99.1671 18.5688 99.7041 18.3538 100.125 17.9222L99.5773 17.3892L99.0301 16.8562C98.9105 16.9789 98.7744 17.041 98.5676 17.041V17.8049ZM99.5773 17.3892L100.121 17.9258C100.524 17.5171 100.778 16.9619 100.934 16.338L100.193 16.1527L99.4518 15.9674C99.3342 16.4378 99.1774 16.7069 99.0336 16.8526L99.5773 17.3892ZM100.193 16.1527L100.933 16.3425C101.094 15.7132 101.167 14.968 101.167 14.1225H100.403H99.6395C99.6395 14.8896 99.5722 15.4979 99.4529 15.9628L100.193 16.1527ZM100.403 14.1225H101.167C101.167 13.576 101.082 13.0373 100.81 12.6103L100.166 13.021L99.5218 13.4317C99.5662 13.5014 99.6395 13.6971 99.6395 14.1225H100.403ZM100.166 13.021L100.817 12.6211C100.517 12.1336 100.035 11.8791 99.4747 11.8791V12.643V13.4069C99.4988 13.4069 99.5114 13.4094 99.5153 13.4103C99.5187 13.4111 99.5161 13.4108 99.5104 13.4077C99.5079 13.4063 99.5055 13.4048 99.5036 13.4033C99.5026 13.4026 99.5019 13.402 99.5013 13.4016C99.5011 13.4013 99.5009 13.4012 99.5007 13.401C99.5006 13.4009 99.5005 13.4008 99.5005 13.4008C99.5005 13.4008 99.5009 13.4011 99.5015 13.4018C99.5021 13.4025 99.503 13.4036 99.5042 13.4051C99.5066 13.4082 99.5103 13.4132 99.515 13.4208L100.166 13.021ZM99.4747 12.643V11.8791C98.8753 11.8791 98.3386 12.0939 97.9159 12.5222L98.4596 13.0588L99.0033 13.5954C99.1277 13.4693 99.2678 13.4069 99.4747 13.4069V12.643ZM98.4596 13.0588L97.9194 12.5186C97.5154 12.9227 97.2591 13.4737 97.099 14.0934L97.8387 14.2845L98.5783 14.4755C98.699 14.0081 98.8566 13.742 98.9997 13.5989L98.4596 13.0588ZM97.8387 14.2845L97.0982 14.0969C96.9407 14.7185 96.8696 15.4577 96.8696 16.2985H97.6335H98.3974C98.3974 15.5338 98.4631 14.9303 98.5792 14.4721L97.8387 14.2845ZM97.6335 16.2985H96.8696C96.8696 16.852 96.9547 17.393 97.2217 17.824L97.8711 17.4216L98.5204 17.0192C98.4706 16.9389 98.3974 16.7312 98.3974 16.2985H97.6335ZM97.8711 17.4216L97.2217 17.824C97.5224 18.3091 98.0029 18.5688 98.5676 18.5688V17.8049V17.041C98.5443 17.041 98.5321 17.0386 98.5284 17.0378C98.5252 17.037 98.5275 17.0372 98.5323 17.0399C98.5372 17.0426 98.5395 17.0449 98.5388 17.0441C98.5377 17.043 98.5309 17.0362 98.5204 17.0192L97.8711 17.4216Z" fill="white" mask="url(#path-2-outside-1_2360_31467)"/>
<defs>
<filter id="filter0_d_2360_31467" x="-0.000214994" y="2.91467e-05" width="115.349" height="32.0839" filterUnits="userSpaceOnUse" color-interpolation-filters="sRGB">
<feFlood flood-opacity="0" result="BackgroundImageFix"/>
<feColorMatrix in="SourceAlpha" type="matrix" values="0 0 0 0 0 0 0 0 0 0 0 0 0 0 0 0 0 0 127 0" result="hardAlpha"/>
<feOffset dx="0.763887" dy="0.763887"/>
<feGaussianBlur stdDeviation="0.763887"/>
<feComposite in2="hardAlpha" operator="out"/>
<feColorMatrix type="matrix" values="0 0 0 0 0 0 0 0 0 0 0 0 0 0 0 0 0 0 1 0"/>
<feBlend mode="normal" in2="BackgroundImageFix" result="effect1_dropShadow_2360_31467"/>
<feBlend mode="normal" in="SourceGraphic" in2="effect1_dropShadow_2360_31467" result="shape"/>
</filter>
<linearGradient id="paint0_linear_2360_31467" x1="56.9102" y1="0.763916" x2="56.9102" y2="29.7923" gradientUnits="userSpaceOnUse">
<stop stop-color="#FEFFFF"/>
<stop offset="0.0935292" stop-color="#FEFFFF"/>
<stop offset="0.182883" stop-color="#BDBCC1"/>
<stop offset="0.272236" stop-color="#FEFFFF"/>
<stop offset="0.544999" stop-color="#FEFFFF"/>
<stop offset="0.838956" stop-color="#969694"/>
</linearGradient>
</defs>
</svg>
