<svg width="36" height="36" viewBox="0 0 36 36" fill="none" xmlns="http://www.w3.org/2000/svg">
<path d="M17.9998 34.9013C27.3301 34.9013 34.9001 27.3312 34.9001 18.001H1.11279C1.11279 27.3312 8.66961 34.9013 17.9998 34.9013Z" fill="#F1F2F2"/>
<path d="M17.9987 36.0005C8.07296 36.0005 0 27.9275 0 18.0018V16.9033H35.9975V18.0018C35.9975 27.9275 27.9245 36.0005 17.9987 36.0005ZM2.24984 19.1002C2.81892 27.2923 9.66109 33.7904 18.012 33.7904C26.3629 33.7904 33.205 27.2923 33.7741 19.1002H2.24984Z" fill="black"/>
<path d="M17.9979 1.10156C8.66771 1.10156 1.09766 8.67162 1.09766 18.0018H34.885C34.8982 8.67162 27.3282 1.10156 17.9979 1.10156Z" fill="#DA2428"/>
<path d="M35.9975 19.0972H0V17.9987C0 8.07296 8.07296 0 17.9987 0C27.9245 0 35.9975 8.07296 35.9975 17.9987V19.0972ZM2.24984 16.9003H33.7609C33.1918 8.70821 26.3496 2.21014 17.9987 2.21014C9.64785 2.21014 2.81892 8.69498 2.24984 16.9003Z" fill="black"/>
<path d="M8.69441 8.91072C8.39002 8.91072 8.09887 8.79161 7.88712 8.5534C7.47685 8.10343 7.50332 7.402 7.95329 6.99173C9.3826 5.68153 11.0369 4.67572 12.85 4.00077C13.4191 3.78902 14.0543 4.08018 14.2661 4.64926C14.4778 5.21834 14.1867 5.85358 13.6176 6.06533C12.0692 6.63441 10.6663 7.49464 9.44877 8.60633C9.22379 8.81808 8.9591 8.91072 8.69441 8.91072Z" fill="white"/>
<path d="M5.65005 12.9316C5.478 12.9316 5.31919 12.8919 5.16037 12.8124C4.61776 12.5345 4.39278 11.8728 4.6707 11.3302C4.84275 10.9861 5.02803 10.6552 5.22655 10.3244C5.54417 9.80825 6.21912 9.63621 6.73526 9.95383C7.2514 10.2715 7.42345 10.9464 7.10583 11.4626C6.93378 11.7405 6.77497 12.0316 6.62939 12.3228C6.44411 12.7066 6.04708 12.9316 5.65005 12.9316Z" fill="white"/>
<path d="M18.0064 22.7769C20.645 22.7769 22.784 20.6379 22.784 17.9993C22.784 15.3607 20.645 13.2217 18.0064 13.2217C15.3678 13.2217 13.2288 15.3607 13.2288 17.9993C13.2288 20.6379 15.3678 22.7769 18.0064 22.7769Z" fill="#E6E7E8"/>
<path d="M18.0029 23.5858C14.9193 23.5858 12.418 21.0845 12.418 18.0009C12.418 14.9173 14.9193 12.416 18.0029 12.416C21.0865 12.416 23.5878 14.9173 23.5878 18.0009C23.5878 21.0845 21.0865 23.5858 18.0029 23.5858ZM18.0029 14.0306C15.8192 14.0306 14.0326 15.8172 14.0326 18.0009C14.0326 20.1846 15.8192 21.9712 18.0029 21.9712C20.1865 21.9712 21.9732 20.1846 21.9732 18.0009C21.9732 15.8172 20.1998 14.0306 18.0029 14.0306Z" fill="black"/>
<path d="M17.9994 20.2644C19.2493 20.2644 20.2625 19.2512 20.2625 18.0014C20.2625 16.7515 19.2493 15.7383 17.9994 15.7383C16.7495 15.7383 15.7363 16.7515 15.7363 18.0014C15.7363 19.2512 16.7495 20.2644 17.9994 20.2644Z" fill="#D1D3D4"/>
<path d="M17.9986 20.7004C16.5032 20.7004 15.2988 19.4828 15.2988 18.0006C15.2988 16.5183 16.5164 15.3008 17.9986 15.3008C19.4809 15.3008 20.6984 16.5183 20.6984 18.0006C20.6984 19.4828 19.4941 20.7004 17.9986 20.7004ZM17.9986 16.1742C16.9928 16.1742 16.1723 16.9948 16.1723 18.0006C16.1723 19.0064 16.9928 19.8269 17.9986 19.8269C19.0045 19.8269 19.825 19.0064 19.825 18.0006C19.825 16.9948 19.0045 16.1742 17.9986 16.1742Z" fill="black"/>
</svg>
