<svg width="28" height="28" viewBox="0 0 28 28" fill="none" xmlns="http://www.w3.org/2000/svg">
<path d="M13.6385 26.4453C20.7087 26.4453 26.4451 20.7089 26.4451 13.6387H0.831787C0.831787 20.7089 6.56821 26.4453 13.6385 26.4453Z" fill="#1C75BC"/>
<path d="M13.6391 27.2781C6.11752 27.2781 0 21.1606 0 13.639C0 13.1777 0.371064 12.8066 0.832385 12.8066H26.4357C26.897 12.8066 27.2681 13.1777 27.2681 13.639C27.2781 21.1606 21.1606 27.2781 13.6391 27.2781ZM1.69485 14.4714C2.12609 20.6792 7.31094 25.6033 13.6391 25.6033C19.9672 25.6033 25.152 20.6792 25.5833 14.4714H1.69485Z" fill="black"/>
<path d="M13.6385 0.833984C6.56821 0.833984 0.831787 6.57041 0.831787 13.6407H26.4351C26.4451 6.57041 20.7087 0.833984 13.6385 0.833984Z" fill="#1C75BC"/>
<path d="M26.4457 14.4714H0.832385C0.371064 14.4714 0 14.1004 0 13.6391C0 6.11752 6.11752 0 13.6391 0C21.1606 0 27.2781 6.11752 27.2781 13.6391C27.2781 14.1004 26.907 14.4714 26.4457 14.4714ZM1.69485 12.8067H25.5732C25.142 6.5989 19.9571 1.6748 13.629 1.6748C7.3009 1.6748 2.12609 6.58887 1.69485 12.8067Z" fill="black"/>
<path d="M23.8658 21.3305L16.1738 13.6385L23.8658 5.94644C23.1438 4.98369 22.2813 4.13125 21.3286 3.40918L13.6365 11.1012L5.94451 3.40918C4.98176 4.13125 4.12931 4.99372 3.40725 5.94644L11.0993 13.6385L3.39722 21.3305C4.11928 22.2933 4.98176 23.1457 5.93448 23.8678L13.6265 16.1757L21.3185 23.8678C22.2913 23.1457 23.1438 22.2933 23.8658 21.3305Z" fill="#F9C713"/>
<path d="M21.3275 24.4902C21.1671 24.4902 21.0166 24.4301 20.8963 24.3097L13.6355 17.0489L6.37472 24.3097C6.15409 24.5303 5.81312 24.5504 5.57243 24.3699C4.56956 23.6077 3.66697 22.7151 2.91482 21.7123C2.7343 21.4716 2.75436 21.1306 2.97499 20.91L10.2358 13.6492L2.97499 6.3884C2.75436 6.16777 2.7343 5.82679 2.91482 5.5861C3.677 4.58323 4.56956 3.68064 5.57243 2.92849C5.81312 2.74797 6.15409 2.76803 6.37472 2.98866L13.6355 10.2495L20.8963 2.98866C21.1169 2.76803 21.4579 2.74797 21.6986 2.92849C22.7015 3.69067 23.6041 4.58323 24.3562 5.5861C24.5367 5.82679 24.5167 6.16777 24.296 6.3884L17.0352 13.6492L24.296 20.91C24.5167 21.1306 24.5367 21.4716 24.3562 21.7123C23.594 22.7151 22.7015 23.6177 21.6986 24.3699C21.5883 24.4401 21.4579 24.4902 21.3275 24.4902ZM13.6355 15.5647C13.796 15.5647 13.9464 15.6248 14.0668 15.7452L21.3777 23.0561C21.9894 22.5547 22.551 21.9931 23.0525 21.3813L15.7415 14.0704C15.5009 13.8297 15.5009 13.4486 15.7415 13.2079L23.0525 5.89699C22.551 5.28524 21.9894 4.72363 21.3777 4.2222L14.0668 11.5331C13.8261 11.7738 13.445 11.7738 13.2043 11.5331L5.89335 4.2222C5.2816 4.72363 4.71999 5.28524 4.21855 5.89699L11.5295 13.2079C11.7702 13.4486 11.7702 13.8297 11.5295 14.0704L4.21855 21.3813C4.71999 21.9931 5.2816 22.5547 5.89335 23.0561L13.2043 15.7452C13.3246 15.6248 13.4751 15.5647 13.6355 15.5647Z" fill="black"/>
<path d="M13.6368 22.6144L22.6125 13.6387H4.66113L13.6368 22.6144Z" fill="#F9C713"/>
<path d="M13.6365 23.2258C13.4761 23.2258 13.3156 23.1657 13.2053 23.0453L4.22958 14.0696C4.05909 13.8991 3.99891 13.6284 4.0992 13.3977C4.18946 13.167 4.42012 13.0166 4.66081 13.0166H22.6122C22.8629 13.0166 23.0836 13.167 23.1738 13.3977C23.2641 13.6284 23.2139 13.8891 23.0434 14.0696L14.0677 23.0453C13.9574 23.1657 13.797 23.2258 13.6365 23.2258ZM6.13503 14.2501L13.6365 21.7516L21.138 14.2501H6.13503Z" fill="black"/>
<path d="M4.65942 13.6398H22.6108L13.6351 4.66406L4.65942 13.6398Z" fill="#F9C713"/>
<path d="M22.6122 14.2522H4.66075C4.41003 14.2522 4.1894 14.1018 4.09914 13.8711C4.00888 13.6404 4.05903 13.3797 4.22951 13.1992L13.2052 4.22349C13.4459 3.9828 13.827 3.9828 14.0677 4.22349L23.0434 13.1992C23.2139 13.3697 23.274 13.6404 23.1738 13.8711C23.0835 14.1018 22.8629 14.2522 22.6122 14.2522ZM6.13497 13.0287H21.1279L13.6264 5.52722L6.13497 13.0287Z" fill="black"/>
<path d="M6.57696 6.74862C6.3463 6.74862 6.12566 6.65837 5.9652 6.47785C5.65431 6.13688 5.67437 5.60535 6.01535 5.29446C7.09845 4.30162 8.35204 3.53944 9.72597 3.02797C10.1572 2.86751 10.6386 3.08815 10.799 3.51938C10.9595 3.95062 10.7389 4.43199 10.3076 4.59245C9.13428 5.02368 8.07124 5.67555 7.14859 6.51796C6.98813 6.67842 6.77753 6.74862 6.57696 6.74862Z" fill="white"/>
<path d="M4.28185 9.79656C4.15147 9.79656 4.03113 9.76647 3.91078 9.7063C3.49961 9.4957 3.32912 8.99427 3.53972 8.58309C3.6701 8.32234 3.8105 8.07162 3.96093 7.82091C4.20162 7.42979 4.71308 7.29941 5.1042 7.5401C5.49532 7.78079 5.6257 8.29226 5.38501 8.68338C5.25463 8.89398 5.13429 9.11461 5.02397 9.33525C4.87354 9.62608 4.58271 9.79656 4.28185 9.79656Z" fill="white"/>
<path d="M13.6411 17.2593C15.6406 17.2593 17.2615 15.6384 17.2615 13.6389C17.2615 11.6394 15.6406 10.0186 13.6411 10.0186C11.6416 10.0186 10.0208 11.6394 10.0208 13.6389C10.0208 15.6384 11.6416 17.2593 13.6411 17.2593Z" fill="#E6E7E8"/>
<path d="M13.6389 17.8724C11.3022 17.8724 9.40674 15.977 9.40674 13.6403C9.40674 11.3036 11.3022 9.4082 13.6389 9.4082C15.9755 9.4082 17.871 11.3036 17.871 13.6403C17.871 15.977 15.9755 17.8724 13.6389 17.8724ZM13.6389 10.6317C11.9841 10.6317 10.6302 11.9856 10.6302 13.6403C10.6302 15.2951 11.9841 16.6489 13.6389 16.6489C15.2936 16.6489 16.6475 15.2951 16.6475 13.6403C16.6475 11.9856 15.2936 10.6317 13.6389 10.6317Z" fill="black"/>
<path d="M13.64 15.3556C14.5871 15.3556 15.3549 14.5878 15.3549 13.6407C15.3549 12.6936 14.5871 11.9258 13.64 11.9258C12.6928 11.9258 11.925 12.6936 11.925 13.6407C11.925 14.5878 12.6928 15.3556 13.64 15.3556Z" fill="#D1D3D4"/>
<path d="M13.6374 15.6855C12.5042 15.6855 11.5916 14.7628 11.5916 13.6396C11.5916 12.5164 12.5142 11.5938 13.6374 11.5938C14.7707 11.5938 15.6833 12.5164 15.6833 13.6396C15.6833 14.7628 14.7606 15.6855 13.6374 15.6855ZM13.6374 12.2556C12.8752 12.2556 12.2534 12.8774 12.2534 13.6396C12.2534 14.4018 12.8752 15.0236 13.6374 15.0236C14.3996 15.0236 15.0214 14.4018 15.0214 13.6396C15.0113 12.8774 14.3996 12.2556 13.6374 12.2556Z" fill="black"/>
</svg>
