<svg width="28" height="28" viewBox="0 0 28 28" fill="none" xmlns="http://www.w3.org/2000/svg">
<path d="M13.9258 26.7598C20.996 26.7598 26.7325 21.0234 26.7325 13.9531H1.12916C1.11913 21.0234 6.85556 26.7598 13.9258 26.7598Z" fill="#F1F2F2"/>
<path d="M13.9269 27.5925C6.40536 27.5925 0.287842 21.475 0.287842 13.9535V13.1211H27.5659V13.9535C27.5659 21.475 21.4484 27.5925 13.9269 27.5925ZM1.9827 14.7859C2.41393 20.9936 7.59877 25.9177 13.9269 25.9177C20.245 25.9177 25.4399 20.9936 25.8711 14.7859H1.9827Z" fill="black"/>
<path d="M13.9265 1.14844C6.8563 1.14844 1.11987 6.88486 1.11987 13.9551H26.7232C26.7232 6.88486 20.9968 1.14844 13.9265 1.14844Z" fill="#804968"/>
<path d="M27.5659 14.7869H0.287842V13.9545C0.287842 6.43295 6.40536 0.31543 13.9269 0.31543C21.4484 0.31543 27.5659 6.43295 27.5659 13.9545V14.7869ZM1.9827 13.1221H25.8611C25.4298 6.91433 20.245 1.99023 13.9169 1.99023C7.60881 1.99023 2.41393 6.9043 1.9827 13.1221Z" fill="black"/>
<path d="M13.9238 17.5747C15.9233 17.5747 17.5442 15.9538 17.5442 13.9543C17.5442 11.9549 15.9233 10.334 13.9238 10.334C11.9244 10.334 10.3035 11.9549 10.3035 13.9543C10.3035 15.9538 11.9244 17.5747 13.9238 17.5747Z" fill="#E6E7E8"/>
<path d="M13.9248 18.1879C11.5881 18.1879 9.69263 16.2924 9.69263 13.9558C9.69263 11.6191 11.5881 9.72363 13.9248 9.72363C16.2614 9.72363 18.1569 11.6191 18.1569 13.9558C18.1569 16.2924 16.2614 18.1879 13.9248 18.1879ZM13.9248 10.9471C12.27 10.9471 10.9161 12.301 10.9161 13.9558C10.9161 15.6105 12.27 16.9644 13.9248 16.9644C15.5795 16.9644 16.9334 15.6105 16.9334 13.9558C16.9334 12.301 15.5795 10.9471 13.9248 10.9471Z" fill="black"/>
<path d="M13.9258 15.671C14.873 15.671 15.6408 14.9032 15.6408 13.9561C15.6408 13.009 14.873 12.2412 13.9258 12.2412C12.9787 12.2412 12.2109 13.009 12.2109 13.9561C12.2109 14.9032 12.9787 15.671 13.9258 15.671Z" fill="#D1D3D4"/>
<path d="M13.9235 16.0009C12.7903 16.0009 11.8777 15.0782 11.8777 13.955C11.8777 12.8318 12.8003 11.9092 13.9235 11.9092C15.0568 11.9092 15.9694 12.8318 15.9694 13.955C15.9694 15.0782 15.0468 16.0009 13.9235 16.0009ZM13.9235 12.5711C13.1614 12.5711 12.5396 13.1929 12.5396 13.955C12.5396 14.7172 13.1614 15.339 13.9235 15.339C14.6857 15.339 15.3075 14.7172 15.3075 13.955C15.2975 13.1929 14.6857 12.5711 13.9235 12.5711Z" fill="black"/>
<path d="M2.82643 10.2637C4.38742 11.5129 7.0864 10.7344 8.85476 8.52485C10.6231 6.31525 10.7912 3.51127 9.23023 2.262C7.66924 1.01273 4.97027 1.79124 3.20191 4.00084C1.43355 6.21043 1.26545 9.0144 2.82643 10.2637Z" fill="#C0707D"/>
<path d="M4.63718 11.698C3.75465 11.698 2.95234 11.4272 2.31051 10.9158C1.33772 10.1335 0.846319 8.9 0.936577 7.44584C1.01681 6.09196 1.58844 4.68794 2.5512 3.4845C3.87499 1.82976 5.70021 0.836914 7.42515 0.836914C8.30768 0.836914 9.10998 1.10769 9.75182 1.61915C10.7246 2.40139 11.216 3.63493 11.1257 5.08909C11.0455 6.44297 10.4739 7.84699 9.51113 9.05043C8.17731 10.7152 6.36211 11.698 4.63718 11.698ZM7.43518 2.51171C6.23173 2.51171 4.8578 3.28392 3.86496 4.52748C2.41079 6.34268 2.18013 8.66934 3.36352 9.61204C3.7045 9.88282 4.13574 10.0232 4.6472 10.0232C5.85065 10.0232 7.22458 9.25101 8.21742 8.00745C9.67159 6.19225 9.90225 3.86558 8.71886 2.92289C8.36785 2.65211 7.93661 2.51171 7.43518 2.51171Z" fill="black"/>
<path d="M18.6231 2.26327C17.0621 3.51254 17.2302 6.3165 18.9985 8.5261C20.7669 10.7357 23.4659 11.5142 25.0269 10.2649C26.5878 9.01566 26.4197 6.21169 24.6514 4.00209C22.883 1.7925 20.184 1.014 18.6231 2.26327Z" fill="#C0707D"/>
<path d="M23.2103 11.6961C21.4854 11.6961 19.6601 10.7032 18.3364 9.04848C17.3736 7.84504 16.802 6.44102 16.7217 5.08714C16.6315 3.62295 17.1229 2.38941 18.0957 1.6172C18.7275 1.10574 19.5398 0.834961 20.4223 0.834961C22.1473 0.834961 23.9725 1.82781 25.2963 3.48254C26.259 4.68599 26.8307 6.09001 26.9109 7.44389C27.0012 8.90808 26.5097 10.1416 25.537 10.9138C24.8951 11.4253 24.0928 11.6961 23.2103 11.6961ZM20.4123 2.50976C19.9008 2.50976 19.4796 2.65016 19.1286 2.92093C18.5871 3.35217 18.3263 4.08427 18.3765 4.98685C18.4366 5.99975 18.8779 7.07282 19.6301 8.00549C20.6229 9.24905 21.9968 10.0213 23.2003 10.0213C23.7117 10.0213 24.1329 9.88086 24.4839 9.61009C25.6573 8.66739 25.4266 6.34072 23.9825 4.52553C22.9897 3.28197 21.6157 2.50976 20.4123 2.50976Z" fill="black"/>
<path d="M7.97239 3.36864C7.76766 2.9882 6.98093 3.01387 6.21518 3.42597C5.44943 3.83806 4.99463 4.48052 5.19936 4.86096C5.4041 5.2414 6.19083 5.21574 6.95658 4.80364C7.72233 4.39155 8.17712 3.74908 7.97239 3.36864Z" fill="white"/>
<path d="M4.74474 5.36175C4.48285 5.20614 4.12376 5.32705 3.9427 5.63179C3.76163 5.93654 3.82715 6.30972 4.08904 6.46532C4.35093 6.62093 4.71001 6.50003 4.89108 6.19529C5.07215 5.89054 5.00663 5.51735 4.74474 5.36175Z" fill="white"/>
</svg>
