<svg width="28" height="28" viewBox="0 0 28 28" fill="none" xmlns="http://www.w3.org/2000/svg">
<path d="M13.6385 26.4453C20.7087 26.4453 26.4451 20.7089 26.4451 13.6387H0.831787C0.831787 20.7089 6.56821 26.4453 13.6385 26.4453Z" fill="#F1F2F2"/>
<path d="M13.6391 27.2781C6.11752 27.2781 0 21.1606 0 13.639V12.8066H27.2781V13.639C27.2781 21.1606 21.1606 27.2781 13.6391 27.2781ZM1.69485 14.4714C2.12608 20.6792 7.31093 25.6033 13.6391 25.6033C19.9672 25.6033 25.152 20.6792 25.5832 14.4714H1.69485Z" fill="black"/>
<path d="M13.6385 8.38408C10.0883 8.38408 6.8791 6.93994 4.56247 4.61328C2.25587 6.92991 0.831787 10.119 0.831787 13.6391H26.4351C26.4351 10.119 25.011 6.91989 22.7044 4.61328C20.3978 6.93994 17.1886 8.38408 13.6385 8.38408Z" fill="#414042"/>
<path d="M27.2781 14.4723H0V13.6399C0 10.0095 1.41405 6.58971 3.97137 4.02236L4.56307 3.43066L5.15476 4.02236C7.42125 6.29888 10.4299 7.55246 13.6391 7.55246C16.8482 7.55246 19.8569 6.29888 22.1233 4.02236L22.715 3.43066L23.3067 4.02236C25.8641 6.59974 27.2781 10.0095 27.2781 13.6399V14.4723ZM1.69485 12.8075H25.5732C25.3927 10.2101 24.3798 7.76307 22.6749 5.79744C20.1778 8.01378 16.9987 9.21723 13.6391 9.21723C10.2694 9.21723 7.10033 8.00376 4.60318 5.79744C2.88827 7.76307 1.87537 10.2 1.69485 12.8075Z" fill="black"/>
<path d="M13.6318 17.2593C15.6313 17.2593 17.2522 15.6384 17.2522 13.6389C17.2522 11.6394 15.6313 10.0186 13.6318 10.0186C11.6324 10.0186 10.0115 11.6394 10.0115 13.6389C10.0115 15.6384 11.6324 17.2593 13.6318 17.2593Z" fill="#E6E7E8"/>
<path d="M13.633 17.8724C11.2963 17.8724 9.40088 15.977 9.40088 13.6403C9.40088 11.3036 11.2963 9.4082 13.633 9.4082C15.9697 9.4082 17.8651 11.3036 17.8651 13.6403C17.8651 15.977 15.9697 17.8724 13.633 17.8724ZM13.633 10.6317C11.9783 10.6317 10.6244 11.9856 10.6244 13.6403C10.6244 15.2951 11.9783 16.6489 13.633 16.6489C15.2877 16.6489 16.6416 15.2951 16.6416 13.6403C16.6416 11.9856 15.2877 10.6317 13.633 10.6317Z" fill="black"/>
<path d="M13.6395 15.3566C14.5866 15.3566 15.3544 14.5888 15.3544 13.6417C15.3544 12.6945 14.5866 11.9268 13.6395 11.9268C12.6924 11.9268 11.9246 12.6945 11.9246 13.6417C11.9246 14.5888 12.6924 15.3566 13.6395 15.3566Z" fill="#D1D3D4"/>
<path d="M13.6401 15.6864C12.5069 15.6864 11.5942 14.7638 11.5942 13.6406C11.5942 12.5174 12.5169 11.5947 13.6401 11.5947C14.7733 11.5947 15.686 12.5174 15.686 13.6406C15.686 14.7638 14.7633 15.6864 13.6401 15.6864ZM13.6401 12.2566C12.8779 12.2566 12.2561 12.8784 12.2561 13.6406C12.2561 14.4028 12.8779 15.0245 13.6401 15.0245C14.4023 15.0245 15.0241 14.4028 15.0241 13.6406C15.014 12.8784 14.4023 12.2566 13.6401 12.2566Z" fill="black"/>
<path d="M20.1386 2.6084C18.2331 3.73161 16.0067 4.38348 13.64 4.38348C11.2631 4.38348 9.0468 3.73161 7.14135 2.6084C6.19865 3.15998 5.33618 3.84193 4.56396 4.60412C6.8806 6.93078 10.0898 8.37491 13.64 8.37491C17.1901 8.37491 20.3993 6.93078 22.7159 4.60412C21.9437 3.84193 21.0813 3.17001 20.1386 2.6084Z" fill="#DA2428"/>
<path d="M13.6385 9.21648C9.97803 9.21648 6.5482 7.7924 3.97082 5.19496L3.38916 4.60327L3.97082 4.01157C4.79318 3.18922 5.71582 2.47718 6.70866 1.88548L7.12987 1.63477L7.55108 1.88548C9.38633 2.96858 11.4924 3.54022 13.6285 3.54022C15.7646 3.54022 17.8706 2.96858 19.7059 1.88548L20.1271 1.63477L20.5483 1.88548C21.5512 2.47718 22.4738 3.18922 23.2861 4.01157L23.8678 4.60327L23.2861 5.19496C20.7288 7.7924 17.289 9.21648 13.6385 9.21648ZM5.78603 4.6133C7.96226 6.51875 10.7202 7.55171 13.6385 7.55171C16.5569 7.55171 19.3148 6.51875 21.491 4.6133C21.0598 4.24223 20.5984 3.89123 20.1171 3.58034C18.1314 4.65341 15.905 5.21502 13.6285 5.21502C11.362 5.21502 9.12559 4.65341 7.1399 3.58034C6.66855 3.89123 6.21726 4.2322 5.78603 4.6133Z" fill="black"/>
<path d="M7.13232 2.60907C9.03778 3.73228 11.2642 4.38415 13.6309 4.38415C16.0077 4.38415 18.2241 3.73228 20.1295 2.60907C18.2241 1.48585 15.9977 0.833984 13.6309 0.833984C11.2642 0.833984 9.03778 1.48585 7.13232 2.60907Z" fill="#414042"/>
<path d="M13.6399 5.21493C11.2029 5.21493 8.80606 4.56307 6.71005 3.32953L5.49658 2.60747L6.71005 1.8854C8.80606 0.651865 11.1929 0 13.6399 0C16.0769 0 18.4737 0.651865 20.5697 1.8854L21.7832 2.60747L20.5697 3.32953C18.4737 4.56307 16.0769 5.21493 13.6399 5.21493ZM8.98657 2.60747C10.4508 3.22925 12.0353 3.55017 13.6399 3.55017C15.2445 3.55017 16.829 3.22925 18.2932 2.60747C16.829 1.98569 15.2445 1.66477 13.6399 1.66477C12.0353 1.6748 10.4508 1.99571 8.98657 2.60747Z" fill="black"/>
<path d="M6.56475 6.74862C6.33409 6.74862 6.11346 6.65837 5.953 6.47785C5.64211 6.13688 5.66216 5.60535 6.00314 5.29446C7.08624 4.30162 8.33983 3.53944 9.71376 3.02797C10.145 2.86751 10.6264 3.08815 10.7868 3.51938C10.9473 3.95062 10.7267 4.43199 10.2954 4.59245C9.12208 5.02368 8.05903 5.67555 7.13639 6.51796C6.9659 6.67842 6.76533 6.74862 6.56475 6.74862Z" fill="white"/>
<path d="M4.25841 9.79949C4.12804 9.79949 4.00769 9.7694 3.88735 9.70923C3.47617 9.49863 3.30568 8.9972 3.51628 8.58602C3.64666 8.32527 3.78706 8.07455 3.93749 7.82384C4.17818 7.43272 4.68965 7.30234 5.08077 7.54303C5.47189 7.78372 5.60226 8.29519 5.36157 8.68631C5.2312 8.89691 5.11085 9.11754 5.00053 9.33817C4.86013 9.62901 4.5693 9.79949 4.25841 9.79949Z" fill="white"/>
</svg>
